<svg width="1056" height="524" viewBox="0 0 1056 524" fill="none" xmlns="http://www.w3.org/2000/svg">
<path d="M821.401 178.5L927.909 287L961.569 319.5L815.875 466.5H751.066L850.037 367L741.52 259L821.401 178.5Z" fill="#9CDAAD"/>
<path d="M3 145V4L926.401 3.5L1042.96 115L900.779 258.5L820.898 178L741.52 259.5L757.597 275.5L707.86 325.5L799.798 417.5L750.563 467.5H521.974V520.5H79.8664V466.5H3V323.5H53.7419V145H3Z" fill="#E1F0DF"/>
<path d="M54.2442 145.5H4.00476V324H54.2442V145.5Z" fill="#C8A590"/>
<path d="M544.581 324.5V146H647.572V324.5H544.581Z" fill="#C8A590"/>
<path d="M379.796 146H219.532V196H195.92V259H223.049V376H376.782V259H402.404V196H379.796V146Z" fill="#258579"/>
<path d="M707.86 325L757.094 275L848.53 366.5L799.295 416.5L707.86 325Z" fill="#258579"/>
<path d="M991.21 170L901.282 259L961.067 319.5L1051 229L991.21 170Z" fill="#258579"/>
<path d="M990.708 169L1042.96 115L926.401 3H594.821M990.708 169L1052 229.5L962.574 319.5M990.708 169L957.047 202.313M299.413 3H3V101V324M299.413 3V101M299.413 3H594.821M299.413 145V259M299.413 145H334.58M299.413 145H264.245M299.413 521H522.476V467H594.821M299.413 521H80.3688V467H3V324M299.413 521V377M594.821 3V38M594.821 467V449M594.821 467H749.558M594.821 77V325M299.413 259V377M299.413 259H375.777M299.413 259H224.054M299.413 377H375.777V304M299.413 377H224.054V304M375.777 259H402.906V196H380.801V145H374.772M375.777 259V264M224.054 259H195.92V196H219.03V145H224.054M224.054 259V264M749.558 467H815.874L962.574 319.5M749.558 467L799.798 417.284M928.913 287.5L962.574 319.5M928.913 287.5L850.037 367M928.913 287.5L900.779 258M850.54 207L820.898 178L796.783 202.608M850.54 207L962.574 96L984.177 118M850.54 207L900.779 258M850.037 367L799.798 417.284M850.037 367L757.513 275L741.52 259L767.49 232.5M799.798 417.284L707.357 325L730.467 302M3 324H54.2443V145M900.779 258L923.387 235.626M544.581 145V325H648.075V145" stroke="#11534B" stroke-width="5"/>
<path d="M581.424 229.333V252.667H557.979V229.333H581.424ZM581.424 226H557.979C556.136 226 554.629 227.5 554.629 229.333V252.667C554.629 254.5 556.136 256 557.979 256H581.424C583.266 256 584.773 254.5 584.773 252.667V229.333C584.773 227.5 583.266 226 581.424 226ZM579.749 231H572.347V236.55H568.026V242.1H563.706V247.667H559.653V251H567.055V245.45H571.376V239.9H575.696V234.333H579.749V231Z" fill="#E1F0DF"/>
<path d="M633.673 229.333V252.667H610.228V229.333H633.673ZM633.673 226H610.228C608.386 226 606.878 227.5 606.878 229.333V252.667C606.878 254.5 608.386 256 610.228 256H633.673C635.515 256 637.022 254.5 637.022 252.667V229.333C637.022 227.5 635.515 226 633.673 226ZM631.998 231H624.596V236.55H620.276V242.1H615.955V247.667H611.902V251H619.304V245.45H623.625V239.9H627.945V234.333H631.998V231Z" fill="#E1F0DF"/>
<path d="M39.8422 229.333V252.667H16.3971V229.333H39.8422ZM39.8422 226H16.3971C14.555 226 13.0479 227.5 13.0479 229.333V252.667C13.0479 254.5 14.555 256 16.3971 256H39.8422C41.6843 256 43.1915 254.5 43.1915 252.667V229.333C43.1915 227.5 41.6843 226 39.8422 226ZM38.1676 231H30.7656V236.55H26.445V242.1H22.1244V247.667H18.0718V251H25.4737V245.45H29.7943V239.9H34.1149V234.333H38.1676V231Z" fill="#E1F0DF"/>
<g clip-path="url(#clip0)">
<path d="M326.71 333.667V321.167H324.198V312C324.198 310.167 325.705 308.667 327.547 308.667H332.571C334.413 308.667 335.92 310.167 335.92 312V321.167H333.408V333.667H326.71ZM347.643 333.667V323.667H352.667L348.413 310.95C347.944 309.583 346.671 308.667 345.231 308.667H345.03C343.59 308.667 342.301 309.583 341.848 310.95L337.595 323.667H342.619V333.667H347.643ZM330.059 307C331.918 307 333.408 305.517 333.408 303.667C333.408 301.817 331.918 300.333 330.059 300.333C328.2 300.333 326.71 301.817 326.71 303.667C326.71 305.517 328.2 307 330.059 307ZM345.131 307C346.99 307 348.48 305.517 348.48 303.667C348.48 301.817 346.99 300.333 345.131 300.333C343.272 300.333 341.781 301.817 341.781 303.667C341.781 305.517 343.272 307 345.131 307Z" fill="#E1F0DF"/>
</g>
<g clip-path="url(#clip1)">
<path d="M330.729 231.667V219.167H328.217V210C328.217 208.167 329.724 206.667 331.566 206.667H336.59C338.432 206.667 339.939 208.167 339.939 210V219.167H337.427V231.667H330.729ZM351.662 231.667V221.667H356.686L352.432 208.95C351.963 207.583 350.691 206.667 349.25 206.667H349.049C347.609 206.667 346.32 207.583 345.868 208.95L341.614 221.667H346.638V231.667H351.662ZM334.078 205C335.937 205 337.427 203.517 337.427 201.667C337.427 199.817 335.937 198.333 334.078 198.333C332.219 198.333 330.729 199.817 330.729 201.667C330.729 203.517 332.219 205 334.078 205ZM349.15 205C351.009 205 352.499 203.517 352.499 201.667C352.499 199.817 351.009 198.333 349.15 198.333C347.291 198.333 345.801 199.817 345.801 201.667C345.801 203.517 347.291 205 349.15 205Z" fill="#E1F0DF"/>
</g>
<g clip-path="url(#clip2)">
<path d="M249.341 231.667V219.167H246.829V210C246.829 208.167 248.336 206.667 250.178 206.667H255.202C257.044 206.667 258.551 208.167 258.551 210V219.167H256.039V231.667H249.341ZM270.274 231.667V221.667H275.298L271.044 208.95C270.575 207.583 269.303 206.667 267.862 206.667H267.661C266.221 206.667 264.932 207.583 264.48 208.95L260.226 221.667H265.25V231.667H270.274ZM252.69 205C254.549 205 256.039 203.517 256.039 201.667C256.039 199.817 254.549 198.333 252.69 198.333C250.831 198.333 249.341 199.817 249.341 201.667C249.341 203.517 250.831 205 252.69 205ZM267.762 205C269.621 205 271.111 203.517 271.111 201.667C271.111 199.817 269.621 198.333 267.762 198.333C265.903 198.333 264.413 199.817 264.413 201.667C264.413 203.517 265.903 205 267.762 205Z" fill="#E1F0DF"/>
</g>
<g clip-path="url(#clip3)">
<path d="M251.35 333.667V321.167H248.838V312C248.838 310.167 250.346 308.667 252.188 308.667H257.212C259.054 308.667 260.561 310.167 260.561 312V321.167H258.049V333.667H251.35ZM272.284 333.667V323.667H277.307L273.054 310.95C272.585 309.583 271.312 308.667 269.872 308.667H269.671C268.231 308.667 266.941 309.583 266.489 310.95L262.236 323.667H267.26V333.667H272.284ZM254.7 307C256.559 307 258.049 305.517 258.049 303.667C258.049 301.817 256.559 300.333 254.7 300.333C252.841 300.333 251.35 301.817 251.35 303.667C251.35 305.517 252.841 307 254.7 307ZM269.772 307C271.63 307 273.121 305.517 273.121 303.667C273.121 301.817 271.63 300.333 269.772 300.333C267.913 300.333 266.422 301.817 266.422 303.667C266.422 305.517 267.913 307 269.772 307Z" fill="#E1F0DF"/>
</g>
<g clip-path="url(#clip4)">
<path d="M766.807 360.667V348.167H764.295V339C764.295 337.167 765.803 335.667 767.645 335.667H772.669C774.511 335.667 776.018 337.167 776.018 339V348.167H773.506V360.667H766.807ZM787.74 360.667V350.667H792.764L788.511 337.95C788.042 336.583 786.769 335.667 785.329 335.667H785.128C783.688 335.667 782.398 336.583 781.946 337.95L777.693 350.667H782.716V360.667H787.74ZM770.157 334C772.015 334 773.506 332.517 773.506 330.667C773.506 328.817 772.015 327.333 770.157 327.333C768.298 327.333 766.807 328.817 766.807 330.667C766.807 332.517 768.298 334 770.157 334ZM785.228 334C787.087 334 788.578 332.517 788.578 330.667C788.578 328.817 787.087 327.333 785.228 327.333C783.37 327.333 781.879 328.817 781.879 330.667C781.879 332.517 783.37 334 785.228 334Z" fill="#E1F0DF"/>
</g>
<g clip-path="url(#clip5)">
<path d="M963.746 263.667V251.167H961.234V242C961.234 240.167 962.741 238.667 964.583 238.667H969.607C971.449 238.667 972.957 240.167 972.957 242V251.167H970.445V263.667H963.746ZM984.679 263.667V253.667H989.703L985.449 240.95C984.981 239.583 983.708 238.667 982.268 238.667H982.067C980.627 238.667 979.337 239.583 978.885 240.95L974.631 253.667H979.655V263.667H984.679ZM967.095 237C968.954 237 970.445 235.517 970.445 233.667C970.445 231.817 968.954 230.333 967.095 230.333C965.236 230.333 963.746 231.817 963.746 233.667C963.746 235.517 965.236 237 967.095 237ZM982.167 237C984.026 237 985.516 235.517 985.516 233.667C985.516 231.817 984.026 230.333 982.167 230.333C980.308 230.333 978.818 231.817 978.818 233.667C978.818 235.517 980.308 237 982.167 237Z" fill="#E1F0DF"/>
</g>
<defs>
<clipPath id="clip0">
<rect width="40.1916" height="40" fill="white" transform="translate(317.499 297)"/>
</clipPath>
<clipPath id="clip1">
<rect width="40.1916" height="40" fill="white" transform="translate(321.518 195)"/>
</clipPath>
<clipPath id="clip2">
<rect width="40.1916" height="40" fill="white" transform="translate(240.13 195)"/>
</clipPath>
<clipPath id="clip3">
<rect width="40.1916" height="40" fill="white" transform="translate(242.14 297)"/>
</clipPath>
<clipPath id="clip4">
<rect width="40.1916" height="40" fill="white" transform="translate(757.597 324)"/>
</clipPath>
<clipPath id="clip5">
<rect width="40.1916" height="40" fill="white" transform="translate(954.535 227)"/>
</clipPath>
</defs>
</svg>
