<svg width="1055" height="567" viewBox="0 0 1055 567" fill="none" xmlns="http://www.w3.org/2000/svg">
<path d="M196.5 331H238.5V356.75H301.5L301.829 243.5H196.5V331Z" fill="#258579"/>
<path d="M364.5 331H409.5V243.5H301.829L301.5 356.75H364.5V331Z" fill="#258579"/>
<path d="M731.418 457.52V476H808V382.5L771.5 346H731.418V457.52Z" fill="#258579"/>
<path d="M595.5 169V3H302H3V169H56H196.5V243.5H301.829H409.5V169H546H595.5Z" fill="#C8A590"/>
<path d="M595.5 3V169H644H808L837.447 199L889.5 147.5V3H595.5Z" fill="#C8A590"/>
<path d="M595.5 457.52H731.418V346H771.5L808 382.5L914.5 277.5L837.447 199L808 169H644V360.5H595.5V457.52Z" fill="#C8A590"/>
<path d="M494.5 457.52H595.5V360.5H546V169H409.5V243.5V331H364.5V356.75V382.5H409.5V480H371.5V564H494.5V457.52Z" fill="#C8A590"/>
<path d="M196.5 480V382.5H238.5V356.75V331H196.5V243.5V169H56V361.5H3V457.52H107.5V564H230V480H196.5Z" fill="#C8A590"/>
<path d="M56 169H3V361.5H56V169Z" fill="#C8A590"/>
<path d="M595.5 169H546V360.5H595.5V169Z" fill="#C8A590"/>
<path d="M595.5 169V360.5H644V169H595.5Z" fill="#C8A590"/>
<path d="M3 457.52V564H107.5V457.52H3Z" fill="#9CDAAD"/>
<path d="M301.5 564V480H230V564H301.5Z" fill="#9CDAAD"/>
<path d="M301.5 480V564H371.5V480H301.5Z" fill="#9CDAAD"/>
<path d="M409.5 382.5H364.5V356.75H301.5H238.5V382.5H196.5V480H230H301.5H371.5H409.5V382.5Z" fill="#9CDAAD"/>
<path d="M1052 232.258L997.664 176.317L929.5 108.697L889.5 147.5L837.447 199L914.5 277.5L808 382.5V476H813.416L1052 232.258Z" fill="#9CDAAD"/>
<path d="M934.437 3H889.5V147.5L929.5 108.697L985.369 54.5L934.437 3Z" fill="#9CDAAD"/>
<path d="M997.664 176.317L1052 121.874L985.369 54.5L929.5 108.697L997.664 176.317Z" fill="#9CDAAD"/>
<path d="M595.5 169V3H302H3V169H56H196.5V243.5H301.829H409.5V169H546H595.5Z" fill="#E1F0DF"/>
<path d="M595.5 3V169H644H808L837.447 199L889.5 147.5V3H595.5Z" fill="#E1F0DF"/>
<path d="M595.5 457.52H731.418V346H771.5L808 382.5L914.5 277.5L837.447 199L808 169H644V360.5H595.5V457.52Z" fill="#E1F0DF"/>
<path d="M494.5 457.52H595.5V360.5H546V169H409.5V243.5V331H364.5V356.75V382.5H409.5V480H371.5V564H494.5V457.52Z" fill="#E1F0DF"/>
<path d="M196.5 480V382.5H238.5V356.75V331H196.5V243.5V169H56V361.5H3V457.52H107.5V564H230V480H196.5Z" fill="#E1F0DF"/>
<path d="M595.5 169V3H302H3V169H56H196.5V243.5H301.829H409.5V169H546H595.5Z" fill="#E1F0DF"/>
<path d="M595.5 3V169H644H808L837.447 199L889.5 147.5V3H595.5Z" fill="#E1F0DF"/>
<path d="M595.5 457.52H731.418V346H771.5L808 382.5L914.5 277.5L837.447 199L808 169H644V360.5H595.5V457.52Z" fill="#E1F0DF"/>
<path d="M494.5 457.52H595.5V360.5H546V169H409.5V243.5V331H364.5V356.75V382.5H409.5V480H371.5V564H494.5V457.52Z" fill="#E1F0DF"/>
<path d="M196.5 480V382.5H238.5V356.75V331H196.5V243.5V169H56V361.5H3V457.52H107.5V564H230V480H196.5Z" fill="#E1F0DF"/>
<path d="M595.5 3V169M595.5 3H889.5M595.5 3H302M997.664 176.317L1052 121.874L985.369 54.5M997.664 176.317L1052 232.258L813.416 476H808M997.664 176.317L929.5 108.697M731.418 457.52V476H808M731.418 457.52V317L762 288L776 302.5M731.418 457.52H691.5M595.5 457.52H494.5M595.5 457.52H651.5M595.5 457.52V429M595.5 169H546V360.5M595.5 169V360.5V389M595.5 169H644V213.5V360.5M808 382.5L914.5 277.5L837.447 199L843.5 193M808 382.5L771.5 346M808 382.5V476M889.5 3H934.437L985.369 54.5M889.5 3V147.5M889.5 147.5L929.5 108.697M889.5 147.5L870 166.5M985.369 54.5L929.5 108.697M494.5 457.52V564H371.5M494.5 457.52V387H458M3 457.52V564H107.5M3 457.52V361.5V169M3 457.52H55.25M409.5 331V243.5H301.829M364.5 331V356.75M196.5 382.5V480H230H301.5M238.5 382.5V356.75M238.5 331V356.75M196.5 331V243.5H301.829M3 169V3H302M3 169H56V361.5M238.5 356.75H301.5M364.5 356.75V382.5H409.5V480H371.5H301.5M364.5 356.75H301.5M302 184.5L301.829 243.5M301.5 356.75L301.829 243.5M301.5 140.5L302 3M142.5 387H107.5V457.52V564M301.5 564V480M301.5 564H371.5M301.5 564H230M371.5 564V522M230 564H107.5M230 564V522" stroke="#11534B" stroke-width="5" stroke-linecap="round" stroke-linejoin="round"/>
<path d="M582.667 255.333V278.667H559.333V255.333H582.667ZM582.667 252H559.333C557.5 252 556 253.5 556 255.333V278.667C556 280.5 557.5 282 559.333 282H582.667C584.5 282 586 280.5 586 278.667V255.333C586 253.5 584.5 252 582.667 252ZM581 257H573.633V262.55H569.333V268.1H565.033V273.667H561V277H568.367V271.45H572.667V265.9H576.967V260.333H581V257Z" fill="#E1F0DF"/>
<path d="M631.667 255.333V278.667H608.333V255.333H631.667ZM631.667 252H608.333C606.5 252 605 253.5 605 255.333V278.667C605 280.5 606.5 282 608.333 282H631.667C633.5 282 635 280.5 635 278.667V255.333C635 253.5 633.5 252 631.667 252ZM630 257H622.633V262.55H618.333V268.1H614.033V273.667H610V277H617.367V271.45H621.667V265.9H625.967V260.333H630V257Z" fill="#E1F0DF"/>
<path d="M41.6667 255.333V278.667H18.3333V255.333H41.6667ZM41.6667 252H18.3333C16.5 252 15 253.5 15 255.333V278.667C15 280.5 16.5 282 18.3333 282H41.6667C43.5 282 45 280.5 45 278.667V255.333C45 253.5 43.5 252 41.6667 252ZM40 257H32.6333V262.55H28.3333V268.1H24.0333V273.667H20V277H27.3667V271.45H31.6667V265.9H35.9667V260.333H40V257Z" fill="#E1F0DF"/>
<g clip-path="url(#clip0)">
<path d="M238.667 309.667V297.167H236.167V288C236.167 286.167 237.667 284.667 239.5 284.667H244.5C246.333 284.667 247.833 286.167 247.833 288V297.167H245.333V309.667H238.667ZM259.5 309.667V299.667H264.5L260.267 286.95C259.8 285.583 258.533 284.667 257.1 284.667H256.9C255.467 284.667 254.183 285.583 253.733 286.95L249.5 299.667H254.5V309.667H259.5ZM242 283C243.85 283 245.333 281.517 245.333 279.667C245.333 277.817 243.85 276.333 242 276.333C240.15 276.333 238.667 277.817 238.667 279.667C238.667 281.517 240.15 283 242 283ZM257 283C258.85 283 260.333 281.517 260.333 279.667C260.333 277.817 258.85 276.333 257 276.333C255.15 276.333 253.667 277.817 253.667 279.667C253.667 281.517 255.15 283 257 283Z" fill="#E1F0DF"/>
</g>
<g clip-path="url(#clip1)">
<path d="M339.667 309.667V297.167H337.167V288C337.167 286.167 338.667 284.667 340.5 284.667H345.5C347.333 284.667 348.833 286.167 348.833 288V297.167H346.333V309.667H339.667ZM360.5 309.667V299.667H365.5L361.267 286.95C360.8 285.583 359.533 284.667 358.1 284.667H357.9C356.467 284.667 355.183 285.583 354.733 286.95L350.5 299.667H355.5V309.667H360.5ZM343 283C344.85 283 346.333 281.517 346.333 279.667C346.333 277.817 344.85 276.333 343 276.333C341.15 276.333 339.667 277.817 339.667 279.667C339.667 281.517 341.15 283 343 283ZM358 283C359.85 283 361.333 281.517 361.333 279.667C361.333 277.817 359.85 276.333 358 276.333C356.15 276.333 354.667 277.817 354.667 279.667C354.667 281.517 356.15 283 358 283Z" fill="#E1F0DF"/>
</g>
<g clip-path="url(#clip2)">
<path d="M757.667 434.667V422.167H755.167V413C755.167 411.167 756.667 409.667 758.5 409.667H763.5C765.333 409.667 766.833 411.167 766.833 413V422.167H764.333V434.667H757.667ZM778.5 434.667V424.667H783.5L779.267 411.95C778.8 410.583 777.533 409.667 776.1 409.667H775.9C774.467 409.667 773.183 410.583 772.733 411.95L768.5 424.667H773.5V434.667H778.5ZM761 408C762.85 408 764.333 406.517 764.333 404.667C764.333 402.817 762.85 401.333 761 401.333C759.15 401.333 757.667 402.817 757.667 404.667C757.667 406.517 759.15 408 761 408ZM776 408C777.85 408 779.333 406.517 779.333 404.667C779.333 402.817 777.85 401.333 776 401.333C774.15 401.333 772.667 402.817 772.667 404.667C772.667 406.517 774.15 408 776 408Z" fill="#E1F0DF"/>
</g>
<defs>
<clipPath id="clip0">
<rect width="40" height="40" fill="white" transform="translate(229.5 273)"/>
</clipPath>
<clipPath id="clip1">
<rect width="40" height="40" fill="white" transform="translate(330.5 273)"/>
</clipPath>
<clipPath id="clip2">
<rect width="40" height="40" fill="white" transform="translate(748.5 398)"/>
</clipPath>
</defs>
</svg>
