<svg width="1055" height="567" viewBox="0 0 1055 567" fill="none" xmlns="http://www.w3.org/2000/svg">
<path d="M196.5 331H238.5V356.75H301.5L301.829 243.5H196.5V331Z" fill="#258579"/>
<path d="M364.5 331H409.5V243.5H301.829L301.5 356.75H364.5V331Z" fill="#258579"/>
<path d="M731.418 457.52V476H808V382.5L771.5 346H731.418V457.52Z" fill="#258579"/>
<path d="M595.5 169V3H302H3V169H56H196.5V243.5H301.829H409.5V169H546H595.5Z" fill="#C8A590"/>
<path d="M595.5 3V169H644H808L837.447 199L889.5 147.5V3H595.5Z" fill="#C8A590"/>
<path d="M595.5 457.52H731.418V346H771.5L808 382.5L914.5 277.5L837.447 199L808 169H644V360.5H595.5V457.52Z" fill="#C8A590"/>
<path d="M494.5 457.52H595.5V360.5H546V169H409.5V243.5V331H364.5V356.75V382.5H409.5V480H371.5V564H494.5V457.52Z" fill="#C8A590"/>
<path d="M196.5 480V382.5H238.5V356.75V331H196.5V243.5V169H56V361.5H3V457.52H107.5V564H230V480H196.5Z" fill="#C8A590"/>
<path d="M56 169H3V361.5H56V169Z" fill="#C8A590"/>
<path d="M595.5 169H546V360.5H595.5V169Z" fill="#C8A590"/>
<path d="M595.5 169V360.5H644V169H595.5Z" fill="#C8A590"/>
<path d="M3 457.52V564H107.5V457.52H3Z" fill="#9CDAAD"/>
<path d="M301.5 564V480H230V564H301.5Z" fill="#9CDAAD"/>
<path d="M301.5 480V564H371.5V480H301.5Z" fill="#9CDAAD"/>
<path d="M409.5 382.5H364.5V356.75H301.5H238.5V382.5H196.5V480H230H301.5H371.5H409.5V382.5Z" fill="#9CDAAD"/>
<path d="M1052 232.258L997.664 176.317L929.5 108.697L889.5 147.5L837.447 199L914.5 277.5L808 382.5V476H813.416L1052 232.258Z" fill="#9CDAAD"/>
<path d="M934.437 3H889.5V147.5L929.5 108.697L985.369 54.5L934.437 3Z" fill="#9CDAAD"/>
<path d="M997.664 176.317L1052 121.874L985.369 54.5L929.5 108.697L997.664 176.317Z" fill="#9CDAAD"/>
<path d="M595.5 169V3H302H3V169H56H196.5V243.5H301.829H409.5V169H546H595.5Z" fill="#E1F0DF"/>
<path d="M595.5 3V169H644H808L837.447 199L889.5 147.5V3H595.5Z" fill="#E1F0DF"/>
<path d="M595.5 457.52H731.418V346H771.5L808 382.5L914.5 277.5L837.447 199L808 169H644V360.5H595.5V457.52Z" fill="#E1F0DF"/>
<path d="M494.5 457.52H595.5V360.5H546V169H409.5V243.5V331H364.5V356.75V382.5H409.5V480H371.5V564H494.5V457.52Z" fill="#E1F0DF"/>
<path d="M196.5 480V382.5H238.5V356.75V331H196.5V243.5V169H56V361.5H3V457.52H107.5V564H230V480H196.5Z" fill="#E1F0DF"/>
<path d="M595.5 169V3H302H3V169H56H196.5V243.5H301.829H409.5V169H546H595.5Z" fill="#E1F0DF"/>
<path d="M595.5 3V169H644H808L837.447 199L889.5 147.5V3H595.5Z" fill="#E1F0DF"/>
<path d="M595.5 457.52H731.418V346H771.5L808 382.5L914.5 277.5L837.447 199L808 169H644V360.5H595.5V457.52Z" fill="#E1F0DF"/>
<path d="M494.5 457.52H595.5V360.5H546V169H409.5V243.5V331H364.5V356.75V382.5H409.5V480H371.5V564H494.5V457.52Z" fill="#E1F0DF"/>
<path d="M196.5 480V382.5H238.5V356.75V331H196.5V243.5V169H56V361.5H3V457.52H107.5V564H230V480H196.5Z" fill="#E1F0DF"/>
<path d="M595.5 3V169M595.5 3H889.5M595.5 3H302M997.664 176.317L1052 121.874L985.369 54.5M997.664 176.317L1052 232.258L813.416 476H808M997.664 176.317L929.5 108.697M731.418 457.52V476H808M731.418 457.52V317L762 288L776 302.5M731.418 457.52H691.5M595.5 457.52H494.5M595.5 457.52H651.5M595.5 457.52V429M595.5 169H546V360.5M595.5 169V360.5V389M595.5 169H644V213.5V360.5M808 382.5L914.5 277.5L837.447 199L843.5 193M808 382.5L771.5 346M808 382.5V476M889.5 3H934.437L985.369 54.5M889.5 3V147.5M889.5 147.5L929.5 108.697M889.5 147.5L870 166.5M985.369 54.5L929.5 108.697M494.5 457.52V564H371.5M494.5 457.52V387H458M3 457.52V564H107.5M3 457.52V361.5V169M3 457.52H55.25M409.5 331V243.5H301.829M364.5 331V356.75M196.5 382.5V480H230H301.5M238.5 382.5V356.75M238.5 331V356.75M196.5 331V243.5H301.829M3 169V3H302M3 169H56V361.5M238.5 356.75H301.5M364.5 356.75V382.5H409.5V480H371.5H301.5M364.5 356.75H301.5M302 184.5L301.829 243.5M301.5 356.75L301.829 243.5M301.5 140.5L302 3M142.5 387H107.5V457.52V564M301.5 564V480M301.5 564H371.5M301.5 564H230M371.5 564V522M230 564H107.5M230 564V522" stroke="#11534B" stroke-width="5" stroke-linecap="round" stroke-linejoin="round"/>
<path d="M582.667 255.333V278.667H559.333V255.333H582.667ZM582.667 252H559.333C557.5 252 556 253.5 556 255.333V278.667C556 280.5 557.5 282 559.333 282H582.667C584.5 282 586 280.5 586 278.667V255.333C586 253.5 584.5 252 582.667 252ZM581 257H573.633V262.55H569.333V268.1H565.033V273.667H561V277H568.367V271.45H572.667V265.9H576.967V260.333H581V257Z" fill="#E1F0DF"/>
<path d="M631.667 255.333V278.667H608.333V255.333H631.667ZM631.667 252H608.333C606.5 252 605 253.5 605 255.333V278.667C605 280.5 606.5 282 608.333 282H631.667C633.5 282 635 280.5 635 278.667V255.333C635 253.5 633.5 252 631.667 252ZM630 257H622.633V262.55H618.333V268.1H614.033V273.667H610V277H617.367V271.45H621.667V265.9H625.967V260.333H630V257Z" fill="#E1F0DF"/>
<path d="M41.6667 255.333V278.667H18.3333V255.333H41.6667ZM41.6667 252H18.3333C16.5 252 15 253.5 15 255.333V278.667C15 280.5 16.5 282 18.3333 282H41.6667C43.5 282 45 280.5 45 278.667V255.333C45 253.5 43.5 252 41.6667 252ZM40 257H32.6333V262.55H28.3333V268.1H24.0333V273.667H20V277H27.3667V271.45H31.6667V265.9H35.9667V260.333H40V257Z" fill="#E1F0DF"/>
<g clip-path="url(#clip0)">
<path d="M238.667 309.667V297.167H236.167V288C236.167 286.167 237.667 284.667 239.5 284.667H244.5C246.333 284.667 247.833 286.167 247.833 288V297.167H245.333V309.667H238.667ZM259.5 309.667V299.667H264.5L260.267 286.95C259.8 285.583 258.533 284.667 257.1 284.667H256.9C255.467 284.667 254.183 285.583 253.733 286.95L249.5 299.667H254.5V309.667H259.5ZM242 283C243.85 283 245.333 281.517 245.333 279.667C245.333 277.817 243.85 276.333 242 276.333C240.15 276.333 238.667 277.817 238.667 279.667C238.667 281.517 240.15 283 242 283ZM257 283C258.85 283 260.333 281.517 260.333 279.667C260.333 277.817 258.85 276.333 257 276.333C255.15 276.333 253.667 277.817 253.667 279.667C253.667 281.517 255.15 283 257 283Z" fill="#E1F0DF"/>
</g>
<g clip-path="url(#clip1)">
<path d="M339.667 309.667V297.167H337.167V288C337.167 286.167 338.667 284.667 340.5 284.667H345.5C347.333 284.667 348.833 286.167 348.833 288V297.167H346.333V309.667H339.667ZM360.5 309.667V299.667H365.5L361.267 286.95C360.8 285.583 359.533 284.667 358.1 284.667H357.9C356.467 284.667 355.183 285.583 354.733 286.95L350.5 299.667H355.5V309.667H360.5ZM343 283C344.85 283 346.333 281.517 346.333 279.667C346.333 277.817 344.85 276.333 343 276.333C341.15 276.333 339.667 277.817 339.667 279.667C339.667 281.517 341.15 283 343 283ZM358 283C359.85 283 361.333 281.517 361.333 279.667C361.333 277.817 359.85 276.333 358 276.333C356.15 276.333 354.667 277.817 354.667 279.667C354.667 281.517 356.15 283 358 283Z" fill="#E1F0DF"/>
</g>
<g clip-path="url(#clip2)">
<path d="M757.667 434.667V422.167H755.167V413C755.167 411.167 756.667 409.667 758.5 409.667H763.5C765.333 409.667 766.833 411.167 766.833 413V422.167H764.333V434.667H757.667ZM778.5 434.667V424.667H783.5L779.267 411.95C778.8 410.583 777.533 409.667 776.1 409.667H775.9C774.467 409.667 773.183 410.583 772.733 411.95L768.5 424.667H773.5V434.667H778.5ZM761 408C762.85 408 764.333 406.517 764.333 404.667C764.333 402.817 762.85 401.333 761 401.333C759.15 401.333 757.667 402.817 757.667 404.667C757.667 406.517 759.15 408 761 408ZM776 408C777.85 408 779.333 406.517 779.333 404.667C779.333 402.817 777.85 401.333 776 401.333C774.15 401.333 772.667 402.817 772.667 404.667C772.667 406.517 774.15 408 776 408Z" fill="#E1F0DF"/>
</g>
<path d="M99 310C96.7909 310 95 308.209 95 306V294C95 291.791 96.7909 290 99 290H111C113.209 290 115 291.791 115 294V306C115 308.209 113.209 310 111 310H99Z" fill="#757575"/>
<path d="M99 265C96.7909 265 95 263.209 95 261V249C95 246.791 96.7909 245 99 245H111C113.209 245 115 246.791 115 249V261C115 263.209 113.209 265 111 265H99Z" fill="#757575"/>
<path d="M99 220C96.7909 220 95 218.209 95 216V204C95 201.791 96.7909 200 99 200H111C113.209 200 115 201.791 115 204V216C115 218.209 113.209 220 111 220H99Z" fill="#757575"/>
<path d="M159 310C156.791 310 155 308.209 155 306V294C155 291.791 156.791 290 159 290H171C173.209 290 175 291.791 175 294V306C175 308.209 173.209 310 171 310H159Z" fill="#757575"/>
<path d="M159 265C156.791 265 155 263.209 155 261V249C155 246.791 156.791 245 159 245H171C173.209 245 175 246.791 175 249V261C175 263.209 173.209 265 171 265H159Z" fill="#757575"/>
<path d="M159 220C156.791 220 155 218.209 155 216V204C155 201.791 156.791 200 159 200H171C173.209 200 175 201.791 175 204V216C175 218.209 173.209 220 171 220H159Z" fill="#757575"/>
<path d="M430 310C427.791 310 426 308.209 426 306V294C426 291.791 427.791 290 430 290H442C444.209 290 446 291.791 446 294V306C446 308.209 444.209 310 442 310H430Z" fill="#757575"/>
<path d="M430 265C427.791 265 426 263.209 426 261V249C426 246.791 427.791 245 430 245H442C444.209 245 446 246.791 446 249V261C446 263.209 444.209 265 442 265H430Z" fill="#757575"/>
<path d="M430 220C427.791 220 426 218.209 426 216V204C426 201.791 427.791 200 430 200H442C444.209 200 446 201.791 446 204V216C446 218.209 444.209 220 442 220H430Z" fill="#757575"/>
<path d="M490 310C487.791 310 486 308.209 486 306V294C486 291.791 487.791 290 490 290H502C504.209 290 506 291.791 506 294V306C506 308.209 504.209 310 502 310H490Z" fill="#757575"/>
<path d="M490 265C487.791 265 486 263.209 486 261V249C486 246.791 487.791 245 490 245H502C504.209 245 506 246.791 506 249V261C506 263.209 504.209 265 502 265H490Z" fill="#757575"/>
<path d="M490 220C487.791 220 486 218.209 486 216V204C486 201.791 487.791 200 490 200H502C504.209 200 506 201.791 506 204V216C506 218.209 504.209 220 502 220H490Z" fill="#757575"/>
<path d="M825.828 315.79C824.266 314.228 824.266 311.696 825.828 310.133L834.314 301.648C835.876 300.086 838.408 300.086 839.971 301.648L848.456 310.133C850.018 311.696 850.018 314.228 848.456 315.79L839.971 324.276C838.408 325.838 835.876 325.838 834.314 324.276L825.828 315.79Z" fill="#757575"/>
<path d="M857.648 283.971C856.086 282.408 856.086 279.876 857.648 278.314L866.134 269.828C867.696 268.266 870.228 268.266 871.79 269.828L880.276 278.314C881.838 279.876 881.838 282.408 880.276 283.971L871.79 292.456C870.228 294.018 867.696 294.018 866.134 292.456L857.648 283.971Z" fill="#757575"/>
<path d="M325 39C325 36.7909 326.791 35 329 35H341C343.209 35 345 36.7909 345 39V51C345 53.2091 343.209 55 341 55H329C326.791 55 325 53.2091 325 51V39Z" fill="#757575"/>
<path d="M370 39C370 36.7909 371.791 35 374 35H386C388.209 35 390 36.7909 390 39V51C390 53.2091 388.209 55 386 55H374C371.791 55 370 53.2091 370 51V39Z" fill="#757575"/>
<path d="M415 39C415 36.7909 416.791 35 419 35H431C433.209 35 435 36.7909 435 39V51C435 53.2091 433.209 55 431 55H419C416.791 55 415 53.2091 415 51V39Z" fill="#757575"/>
<path d="M325 109C325 106.791 326.791 105 329 105H341C343.209 105 345 106.791 345 109V121C345 123.209 343.209 125 341 125H329C326.791 125 325 123.209 325 121V109Z" fill="#757575"/>
<path d="M370 109C370 106.791 371.791 105 374 105H386C388.209 105 390 106.791 390 109V121C390 123.209 388.209 125 386 125H374C371.791 125 370 123.209 370 121V109Z" fill="#757575"/>
<path d="M415 109C415 106.791 416.791 105 419 105H431C433.209 105 435 106.791 435 109V121C435 123.209 433.209 125 431 125H419C416.791 125 415 123.209 415 121V109Z" fill="#757575"/>
<path d="M505 39C505 36.7909 506.791 35 509 35H521C523.209 35 525 36.7909 525 39V51C525 53.2091 523.209 55 521 55H509C506.791 55 505 53.2091 505 51V39Z" fill="#757575"/>
<path d="M550 39C550 36.7909 551.791 35 554 35H566C568.209 35 570 36.7909 570 39V51C570 53.2091 568.209 55 566 55H554C551.791 55 550 53.2091 550 51V39Z" fill="#757575"/>
<path d="M505 109C505 106.791 506.791 105 509 105H521C523.209 105 525 106.791 525 109V121C525 123.209 523.209 125 521 125H509C506.791 125 505 123.209 505 121V109Z" fill="#757575"/>
<path d="M550 109C550 106.791 551.791 105 554 105H566C568.209 105 570 106.791 570 109V121C570 123.209 568.209 125 566 125H554C551.791 125 550 123.209 550 121V109Z" fill="#757575"/>
<path d="M25 39C25 36.7909 26.7909 35 29 35H41C43.2091 35 45 36.7909 45 39V51C45 53.2091 43.2091 55 41 55H29C26.7909 55 25 53.2091 25 51V39Z" fill="#757575"/>
<path d="M70 39C70 36.7909 71.7909 35 74 35H86C88.2091 35 90 36.7909 90 39V51C90 53.2091 88.2091 55 86 55H74C71.7909 55 70 53.2091 70 51V39Z" fill="#757575"/>
<path d="M115 39C115 36.7909 116.791 35 119 35H131C133.209 35 135 36.7909 135 39V51C135 53.2091 133.209 55 131 55H119C116.791 55 115 53.2091 115 51V39Z" fill="#757575"/>
<path d="M25 109C25 106.791 26.7909 105 29 105H41C43.2091 105 45 106.791 45 109V121C45 123.209 43.2091 125 41 125H29C26.7909 125 25 123.209 25 121V109Z" fill="#757575"/>
<path d="M70 109C70 106.791 71.7909 105 74 105H86C88.2091 105 90 106.791 90 109V121C90 123.209 88.2091 125 86 125H74C71.7909 125 70 123.209 70 121V109Z" fill="#757575"/>
<path d="M115 109C115 106.791 116.791 105 119 105H131C133.209 105 135 106.791 135 109V121C135 123.209 133.209 125 131 125H119C116.791 125 115 123.209 115 121V109Z" fill="#757575"/>
<path d="M205 39C205 36.7909 206.791 35 209 35H221C223.209 35 225 36.7909 225 39V51C225 53.2091 223.209 55 221 55H209C206.791 55 205 53.2091 205 51V39Z" fill="#757575"/>
<path d="M250 39C250 36.7909 251.791 35 254 35H266C268.209 35 270 36.7909 270 39V51C270 53.2091 268.209 55 266 55H254C251.791 55 250 53.2091 250 51V39Z" fill="#757575"/>
<path d="M205 109C205 106.791 206.791 105 209 105H221C223.209 105 225 106.791 225 109V121C225 123.209 223.209 125 221 125H209C206.791 125 205 123.209 205 121V109Z" fill="#757575"/>
<path d="M250 109C250 106.791 251.791 105 254 105H266C268.209 105 270 106.791 270 109V121C270 123.209 268.209 125 266 125H254C251.791 125 250 123.209 250 121V109Z" fill="#757575"/>
<path d="M701 39C701 36.7909 702.791 35 705 35H717C719.209 35 721 36.7909 721 39V51C721 53.2091 719.209 55 717 55H705C702.791 55 701 53.2091 701 51V39Z" fill="#757575"/>
<path d="M746 39C746 36.7909 747.791 35 750 35H762C764.209 35 766 36.7909 766 39V51C766 53.2091 764.209 55 762 55H750C747.791 55 746 53.2091 746 51V39Z" fill="#757575"/>
<path d="M791 39C791 36.7909 792.791 35 795 35H807C809.209 35 811 36.7909 811 39V51C811 53.2091 809.209 55 807 55H795C792.791 55 791 53.2091 791 51V39Z" fill="#757575"/>
<path d="M836 39C836 36.7909 837.791 35 840 35H852C854.209 35 856 36.7909 856 39V51C856 53.2091 854.209 55 852 55H840C837.791 55 836 53.2091 836 51V39Z" fill="#757575"/>
<path d="M701 109C701 106.791 702.791 105 705 105H717C719.209 105 721 106.791 721 109V121C721 123.209 719.209 125 717 125H705C702.791 125 701 123.209 701 121V109Z" fill="#757575"/>
<path d="M746 109C746 106.791 747.791 105 750 105H762C764.209 105 766 106.791 766 109V121C766 123.209 764.209 125 762 125H750C747.791 125 746 123.209 746 121V109Z" fill="#757575"/>
<path d="M791 109C791 106.791 792.791 105 795 105H807C809.209 105 811 106.791 811 109V121C811 123.209 809.209 125 807 125H795C792.791 125 791 123.209 791 121V109Z" fill="#757575"/>
<path d="M836 109C836 106.791 837.791 105 840 105H852C854.209 105 856 106.791 856 109V121C856 123.209 854.209 125 852 125H840C837.791 125 836 123.209 836 121V109Z" fill="#757575"/>
<path d="M614 24C614 21.7909 615.791 20 618 20H630C632.209 20 634 21.7909 634 24V36C634 38.2091 632.209 40 630 40H618C615.791 40 614 38.2091 614 36V24Z" fill="#757575"/>
<path d="M614 74C614 71.7909 615.791 70 618 70H630C632.209 70 634 71.7909 634 74V86C634 88.2091 632.209 90 630 90H618C615.791 90 614 88.2091 614 86V74Z" fill="#757575"/>
<path d="M614 124C614 121.791 615.791 120 618 120H630C632.209 120 634 121.791 634 124V136C634 138.209 632.209 140 630 140H618C615.791 140 614 138.209 614 136V124Z" fill="#757575"/>
<defs>
<clipPath id="clip0">
<rect width="40" height="40" fill="white" transform="translate(229.5 273)"/>
</clipPath>
<clipPath id="clip1">
<rect width="40" height="40" fill="white" transform="translate(330.5 273)"/>
</clipPath>
<clipPath id="clip2">
<rect width="40" height="40" fill="white" transform="translate(748.5 398)"/>
</clipPath>
</defs>
</svg>
