<svg width="1056" height="565" viewBox="0 0 1056 565" fill="none" xmlns="http://www.w3.org/2000/svg">
<path d="M293.747 242V3.5H883.276V145.5L830.55 199.5L904.367 273.5L796.404 380L760.249 344H719.072V450H486.072V382.5H354.508V328H398.195V242H293.747Z" fill="#E1F0DF"/>
<path d="M293.245 305H354.006V382.5H485.57V561.5H293.245H3V4H293.245H884.281H926.964L1042.96 118.5L990.737 172.5L1051 235.5L809.962 475H795.901V379.5L904.869 273.5L829.546 198.5L884.281 144.5V4H293.245V305Z" fill="#9CDAAD"/>
<path d="M398.195 242H293.245V305.5H354.508V329H398.195V242Z" fill="#258579"/>
<path d="M760.248 345H720.578V475H795.901V380L760.248 345Z" fill="#258579"/>
<path d="M635.212 167H538.798V354H635.212V167Z" fill="#C8A590"/>
<path d="M292.743 3H588.01M292.743 3V241M292.743 3H3V562H292.743M292.743 562H486.574V450M292.743 562V475M486.574 450V382H451.926M486.574 450H501.137M720.578 450V475H795.901M720.578 450V344.5V309.5L750.205 281L763.261 294M720.578 450H685.93M588.01 362.5V3M588.01 3H883.778M860.177 168L883.778 144.616M976.677 52.5727L1043.97 119L990.737 172L1052 235L810.966 475H795.901M976.677 52.5727L926.461 3H883.778M976.677 52.5727L883.778 144.616M795.901 380V475M795.901 380L760.248 344.5M795.901 380L905.371 273L830.048 199M398.195 382V475H292.743M292.743 475V304M398.195 328.5V241H292.743M292.743 241V304M354.508 386V328.5V304H292.743M883.778 3V144.616M635.714 355.5V166.5H538.296V355.5M588.01 416V475M635.714 450H552.859" stroke="#11534B" stroke-width="5"/>
</svg>
