<svg width="1056" height="531" viewBox="0 0 1056 531" fill="none" xmlns="http://www.w3.org/2000/svg">
<path d="M293.384 152V4L921.377 4.5L1041.95 122L894.248 268L922.382 295.5L735.491 480.5H514.94V527.5H293.384V383.5H366.734V266.5H395.37V201.5H372.26V152H293.384Z" fill="#E1F0DF"/>
<path d="M809.343 478H739.008L922.382 296L958.052 330.5L809.343 478Z" fill="#9CDAAD"/>
<path d="M292.379 152V3L3 3.23501V528H292.379V383.5V266.5V152Z" fill="#9CDAAD"/>
<path d="M292.379 3L587.787 3.23501M292.379 3V152V266.5V383.5V528M292.379 3L3 3.23501V528H292.379M292.379 528H516.447V479H587.787M988.196 175L1052 238L958.052 331.114M988.196 175L1042.45 121.5L920.875 3.5L587.787 3.23501M988.196 175L956.417 206.5M587.787 455V479M587.787 479H735.994M587.787 330.5V84M587.787 43V3.23501M535.538 148.5V330.5H640.539M640.539 148.5V330.5M640.539 330.5H655.611M735.994 479H808.841L958.052 331.114M735.994 479L792.262 423.753M922.885 295.5L958.052 331.114M922.885 295.5L841.999 215.364M922.885 295.5L841.999 374.918M811.855 185.5L841.999 215.364M841.999 215.364L954.033 104.5L975.636 126M894.75 267.627L924.639 238M731.975 265.5L841.999 374.918M841.999 374.918L792.262 423.753M698.817 330.5L792.262 423.753M698.817 330.5H689.271M698.817 330.5L723.691 306.25" stroke="#11534B" stroke-width="5"/>
<path d="M371.255 152.5H292.882V383.5H366.734V266.5H395.37V201.5H371.255V152.5Z" fill="#258579"/>
<path d="M792.262 424L698.314 330.5L747.549 281L841.497 375L792.262 424Z" fill="#258579"/>
<path d="M957.047 331.5L895.755 268L988.196 175.5L1052 238.5L957.047 331.5Z" fill="#258579"/>
<path d="M641.041 149H536.041V330.5H641.041V149Z" fill="#C8A590"/>
<path d="M292.379 3L587.787 3.23501M292.379 3V152M292.379 3L3 3.23501V528H292.379M292.379 528H516.447V479H587.787M292.379 528V383.5M988.196 175L1052 238L958.052 331.114M988.196 175L1042.45 121.5L920.875 3.5L587.787 3.23501M988.196 175L956.417 206.5M587.787 455V479M587.787 479H735.994M587.787 330.5V84M587.787 43V3.23501M292.379 152V266.5M292.379 152H332.068M371.758 152V202H395.37V266.5H367.236H292.379M292.379 266.5V383.5M292.379 383.5H367.236V305M535.538 148.5V330.5H640.539M640.539 148.5V330.5M640.539 330.5H655.611M735.994 479H808.841L958.052 331.114M735.994 479L792.262 423.753M922.885 295.5L958.052 331.114M922.885 295.5L841.999 215.364M922.885 295.5L841.999 374.918M811.855 185.5L841.999 215.364M841.999 215.364L954.033 104.5L975.636 126M894.75 267.627L924.639 238M731.975 265.5L841.999 374.918M841.999 374.918L792.262 423.753M698.817 330.5L792.262 423.753M698.817 330.5H689.271M698.817 330.5L723.691 306.25" stroke="#11534B" stroke-width="5"/>
<g clip-path="url(#clip0)">
<path d="M327.714 230.667V218.167H325.202V209C325.202 207.167 326.71 205.667 328.552 205.667H333.576C335.418 205.667 336.925 207.167 336.925 209V218.167H334.413V230.667H327.714ZM348.648 230.667V220.667H353.671L349.418 207.95C348.949 206.583 347.676 205.667 346.236 205.667H346.035C344.595 205.667 343.305 206.583 342.853 207.95L338.6 220.667H343.624V230.667H348.648ZM331.064 204C332.923 204 334.413 202.517 334.413 200.667C334.413 198.817 332.923 197.333 331.064 197.333C329.205 197.333 327.714 198.817 327.714 200.667C327.714 202.517 329.205 204 331.064 204ZM346.136 204C347.994 204 349.485 202.517 349.485 200.667C349.485 198.817 347.994 197.333 346.136 197.333C344.277 197.333 342.786 198.817 342.786 200.667C342.786 202.517 344.277 204 346.136 204Z" fill="#E1F0DF"/>
</g>
<g clip-path="url(#clip1)">
<path d="M317.667 342.667V330.167H315.155V321C315.155 319.167 316.662 317.667 318.504 317.667H323.528C325.37 317.667 326.877 319.167 326.877 321V330.167H324.365V342.667H317.667ZM338.6 342.667V332.667H343.624L339.37 319.95C338.901 318.583 337.628 317.667 336.188 317.667H335.987C334.547 317.667 333.257 318.583 332.805 319.95L328.552 332.667H333.576V342.667H338.6ZM321.016 316C322.875 316 324.365 314.517 324.365 312.667C324.365 310.817 322.875 309.333 321.016 309.333C319.157 309.333 317.667 310.817 317.667 312.667C317.667 314.517 319.157 316 321.016 316ZM336.088 316C337.947 316 339.437 314.517 339.437 312.667C339.437 310.817 337.947 309.333 336.088 309.333C334.229 309.333 332.738 310.817 332.738 312.667C332.738 314.517 334.229 316 336.088 316Z" fill="#E1F0DF"/>
</g>
<g clip-path="url(#clip2)">
<path d="M760.779 367.667V355.167H758.267V346C758.267 344.167 759.774 342.667 761.616 342.667H766.64C768.482 342.667 769.989 344.167 769.989 346V355.167H767.477V367.667H760.779ZM781.712 367.667V357.667H786.736L782.482 344.95C782.013 343.583 780.74 342.667 779.3 342.667H779.099C777.659 342.667 776.37 343.583 775.917 344.95L771.664 357.667H776.688V367.667H781.712ZM764.128 341C765.987 341 767.477 339.517 767.477 337.667C767.477 335.817 765.987 334.333 764.128 334.333C762.269 334.333 760.779 335.817 760.779 337.667C760.779 339.517 762.269 341 764.128 341ZM779.2 341C781.059 341 782.549 339.517 782.549 337.667C782.549 335.817 781.059 334.333 779.2 334.333C777.341 334.333 775.85 335.817 775.85 337.667C775.85 339.517 777.341 341 779.2 341Z" fill="#E1F0DF"/>
</g>
<g clip-path="url(#clip3)">
<path d="M961.736 270.667V258.167H959.224V249C959.224 247.167 960.732 245.667 962.574 245.667H967.598C969.44 245.667 970.947 247.167 970.947 249V258.167H968.435V270.667H961.736ZM982.67 270.667V260.667H987.694L983.44 247.95C982.971 246.583 981.698 245.667 980.258 245.667H980.057C978.617 245.667 977.327 246.583 976.875 247.95L972.622 260.667H977.646V270.667H982.67ZM965.086 244C966.945 244 968.435 242.517 968.435 240.667C968.435 238.817 966.945 237.333 965.086 237.333C963.227 237.333 961.736 238.817 961.736 240.667C961.736 242.517 963.227 244 965.086 244ZM980.158 244C982.016 244 983.507 242.517 983.507 240.667C983.507 238.817 982.016 237.333 980.158 237.333C978.299 237.333 976.808 238.817 976.808 240.667C976.808 242.517 978.299 244 980.158 244Z" fill="#E1F0DF"/>
</g>
<path d="M572.381 236.333V259.667H548.935V236.333H572.381ZM572.381 233H548.935C547.093 233 545.586 234.5 545.586 236.333V259.667C545.586 261.5 547.093 263 548.935 263H572.381C574.223 263 575.73 261.5 575.73 259.667V236.333C575.73 234.5 574.223 233 572.381 233ZM570.706 238H563.304V243.55H558.983V249.1H554.663V254.667H550.61V258H558.012V252.45H562.333V246.9H566.653V241.333H570.706V238Z" fill="#E1F0DF"/>
<path d="M625.634 236.333V259.667H602.189V236.333H625.634ZM625.634 233H602.189C600.347 233 598.84 234.5 598.84 236.333V259.667C598.84 261.5 600.347 263 602.189 263H625.634C627.477 263 628.984 261.5 628.984 259.667V236.333C628.984 234.5 627.477 233 625.634 233ZM623.96 238H616.558V243.55H612.237V249.1H607.917V254.667H603.864V258H611.266V252.45H615.587V246.9H619.907V241.333H623.96V238Z" fill="#E1F0DF"/>
<defs>
<clipPath id="clip0">
<rect width="40.1916" height="40" fill="white" transform="translate(318.504 194)"/>
</clipPath>
<clipPath id="clip1">
<rect width="40.1916" height="40" fill="white" transform="translate(308.456 306)"/>
</clipPath>
<clipPath id="clip2">
<rect width="40.1916" height="40" fill="white" transform="translate(751.568 331)"/>
</clipPath>
<clipPath id="clip3">
<rect width="40.1916" height="40" fill="white" transform="translate(952.526 234)"/>
</clipPath>
</defs>
</svg>
