<svg width="1051" height="524" viewBox="0 0 1051 524" fill="none" xmlns="http://www.w3.org/2000/svg">
<path d="M817.5 178.5L923.5 287L957 319.5L812 466.5H747.5L846 367L738 259L817.5 178.5Z" fill="#9CDAAD"/>
<path d="M3 145V4L922 3.5L1038 115L896.5 258.5L817 178L738 259.5L754 275.5L704.5 325.5L796 417.5L747 467.5H519.5V520.5H79.5V466.5H3V323.5H53.5V145H3Z" fill="#E1F0DF"/>
<path d="M54 145.5H4V324H54V145.5Z" fill="#C8A590"/>
<path d="M542 324.5V146H644.5V324.5H542Z" fill="#C8A590"/>
<path d="M378 146H218.5V196H195V259H222V376H375V259H400.5V196H378V146Z" fill="#258579"/>
<path d="M704.5 325L753.5 275L844.5 366.5L795.5 416.5L704.5 325Z" fill="#258579"/>
<path d="M986.5 170L897 259L956.5 319.5L1046 229L986.5 170Z" fill="#258579"/>
<path d="M986 169L1038 115L922 3H592M986 169L1047 229.5L958 319.5M986 169L952.5 202.313M298 3H3V101V324M298 3V101M298 3H592M298 145V259M298 145H333M298 145H263M298 521H520V467H592M298 521H80V467H3V324M298 521V377M592 3V38M592 467V449M592 467H746M592 77V325M298 259V377M298 259H374M298 259H223M298 377H374V304M298 377H223V304M374 259H401V196H379V145H373M374 259V264M223 259H195V196H218V145H223M223 259V264M746 467H812L958 319.5M746 467L796 417.284M924.5 287.5L958 319.5M924.5 287.5L846 367M924.5 287.5L896.5 258M846.5 207L817 178L793 202.608M846.5 207L958 96L979.5 118M846.5 207L896.5 258M846 367L796 417.284M846 367L753.916 275L738 259L763.846 232.5M796 417.284L704 325L727 302M3 324H54V145M896.5 258L919 235.626M542 145V325H645V145" stroke="#11534B" stroke-width="5"/>
<path d="M578.667 229.333V252.667H555.333V229.333H578.667ZM578.667 226H555.333C553.5 226 552 227.5 552 229.333V252.667C552 254.5 553.5 256 555.333 256H578.667C580.5 256 582 254.5 582 252.667V229.333C582 227.5 580.5 226 578.667 226ZM577 231H569.633V236.55H565.333V242.1H561.033V247.667H557V251H564.367V245.45H568.667V239.9H572.967V234.333H577V231Z" fill="#E1F0DF"/>
<path d="M630.667 229.333V252.667H607.333V229.333H630.667ZM630.667 226H607.333C605.5 226 604 227.5 604 229.333V252.667C604 254.5 605.5 256 607.333 256H630.667C632.5 256 634 254.5 634 252.667V229.333C634 227.5 632.5 226 630.667 226ZM629 231H621.633V236.55H617.333V242.1H613.033V247.667H609V251H616.367V245.45H620.667V239.9H624.967V234.333H629V231Z" fill="#E1F0DF"/>
<path d="M39.6667 229.333V252.667H16.3333V229.333H39.6667ZM39.6667 226H16.3333C14.5 226 13 227.5 13 229.333V252.667C13 254.5 14.5 256 16.3333 256H39.6667C41.5 256 43 254.5 43 252.667V229.333C43 227.5 41.5 226 39.6667 226ZM38 231H30.6333V236.55H26.3333V242.1H22.0333V247.667H18V251H25.3667V245.45H29.6667V239.9H33.9667V234.333H38V231Z" fill="#E1F0DF"/>
<g clip-path="url(#clip0)">
<path d="M325.167 333.667V321.167H322.667V312C322.667 310.167 324.167 308.667 326 308.667H331C332.833 308.667 334.333 310.167 334.333 312V321.167H331.833V333.667H325.167ZM346 333.667V323.667H351L346.767 310.95C346.3 309.583 345.033 308.667 343.6 308.667H343.4C341.967 308.667 340.683 309.583 340.233 310.95L336 323.667H341V333.667H346ZM328.5 307C330.35 307 331.833 305.517 331.833 303.667C331.833 301.817 330.35 300.333 328.5 300.333C326.65 300.333 325.167 301.817 325.167 303.667C325.167 305.517 326.65 307 328.5 307ZM343.5 307C345.35 307 346.833 305.517 346.833 303.667C346.833 301.817 345.35 300.333 343.5 300.333C341.65 300.333 340.167 301.817 340.167 303.667C340.167 305.517 341.65 307 343.5 307Z" fill="#E1F0DF"/>
</g>
<g clip-path="url(#clip1)">
<path d="M329.167 231.667V219.167H326.667V210C326.667 208.167 328.167 206.667 330 206.667H335C336.833 206.667 338.333 208.167 338.333 210V219.167H335.833V231.667H329.167ZM350 231.667V221.667H355L350.767 208.95C350.3 207.583 349.033 206.667 347.6 206.667H347.4C345.967 206.667 344.683 207.583 344.233 208.95L340 221.667H345V231.667H350ZM332.5 205C334.35 205 335.833 203.517 335.833 201.667C335.833 199.817 334.35 198.333 332.5 198.333C330.65 198.333 329.167 199.817 329.167 201.667C329.167 203.517 330.65 205 332.5 205ZM347.5 205C349.35 205 350.833 203.517 350.833 201.667C350.833 199.817 349.35 198.333 347.5 198.333C345.65 198.333 344.167 199.817 344.167 201.667C344.167 203.517 345.65 205 347.5 205Z" fill="#E1F0DF"/>
</g>
<g clip-path="url(#clip2)">
<path d="M248.167 231.667V219.167H245.667V210C245.667 208.167 247.167 206.667 249 206.667H254C255.833 206.667 257.333 208.167 257.333 210V219.167H254.833V231.667H248.167ZM269 231.667V221.667H274L269.767 208.95C269.3 207.583 268.033 206.667 266.6 206.667H266.4C264.967 206.667 263.683 207.583 263.233 208.95L259 221.667H264V231.667H269ZM251.5 205C253.35 205 254.833 203.517 254.833 201.667C254.833 199.817 253.35 198.333 251.5 198.333C249.65 198.333 248.167 199.817 248.167 201.667C248.167 203.517 249.65 205 251.5 205ZM266.5 205C268.35 205 269.833 203.517 269.833 201.667C269.833 199.817 268.35 198.333 266.5 198.333C264.65 198.333 263.167 199.817 263.167 201.667C263.167 203.517 264.65 205 266.5 205Z" fill="#E1F0DF"/>
</g>
<g clip-path="url(#clip3)">
<path d="M250.167 333.667V321.167H247.667V312C247.667 310.167 249.167 308.667 251 308.667H256C257.833 308.667 259.333 310.167 259.333 312V321.167H256.833V333.667H250.167ZM271 333.667V323.667H276L271.767 310.95C271.3 309.583 270.033 308.667 268.6 308.667H268.4C266.967 308.667 265.683 309.583 265.233 310.95L261 323.667H266V333.667H271ZM253.5 307C255.35 307 256.833 305.517 256.833 303.667C256.833 301.817 255.35 300.333 253.5 300.333C251.65 300.333 250.167 301.817 250.167 303.667C250.167 305.517 251.65 307 253.5 307ZM268.5 307C270.35 307 271.833 305.517 271.833 303.667C271.833 301.817 270.35 300.333 268.5 300.333C266.65 300.333 265.167 301.817 265.167 303.667C265.167 305.517 266.65 307 268.5 307Z" fill="#E1F0DF"/>
</g>
<g clip-path="url(#clip4)">
<path d="M763.167 360.667V348.167H760.667V339C760.667 337.167 762.167 335.667 764 335.667H769C770.833 335.667 772.333 337.167 772.333 339V348.167H769.833V360.667H763.167ZM784 360.667V350.667H789L784.767 337.95C784.3 336.583 783.033 335.667 781.6 335.667H781.4C779.967 335.667 778.683 336.583 778.233 337.95L774 350.667H779V360.667H784ZM766.5 334C768.35 334 769.833 332.517 769.833 330.667C769.833 328.817 768.35 327.333 766.5 327.333C764.65 327.333 763.167 328.817 763.167 330.667C763.167 332.517 764.65 334 766.5 334ZM781.5 334C783.35 334 784.833 332.517 784.833 330.667C784.833 328.817 783.35 327.333 781.5 327.333C779.65 327.333 778.167 328.817 778.167 330.667C778.167 332.517 779.65 334 781.5 334Z" fill="#E1F0DF"/>
</g>
<g clip-path="url(#clip5)">
<path d="M959.167 263.667V251.167H956.667V242C956.667 240.167 958.167 238.667 960 238.667H965C966.833 238.667 968.333 240.167 968.333 242V251.167H965.833V263.667H959.167ZM980 263.667V253.667H985L980.767 240.95C980.3 239.583 979.033 238.667 977.6 238.667H977.4C975.967 238.667 974.683 239.583 974.233 240.95L970 253.667H975V263.667H980ZM962.5 237C964.35 237 965.833 235.517 965.833 233.667C965.833 231.817 964.35 230.333 962.5 230.333C960.65 230.333 959.167 231.817 959.167 233.667C959.167 235.517 960.65 237 962.5 237ZM977.5 237C979.35 237 980.833 235.517 980.833 233.667C980.833 231.817 979.35 230.333 977.5 230.333C975.65 230.333 974.167 231.817 974.167 233.667C974.167 235.517 975.65 237 977.5 237Z" fill="#E1F0DF"/>
</g>
<path d="M169 25C169 22.7909 170.791 21 173 21H185C187.209 21 189 22.7909 189 25V37C189 39.2091 187.209 41 185 41H173C170.791 41 169 39.2091 169 37V25Z" fill="#757575"/>
<path d="M214 25C214 22.7909 215.791 21 218 21H230C232.209 21 234 22.7909 234 25V37C234 39.2091 232.209 41 230 41H218C215.791 41 214 39.2091 214 37V25Z" fill="#757575"/>
<path d="M259 25C259 22.7909 260.791 21 263 21H275C277.209 21 279 22.7909 279 25V37C279 39.2091 277.209 41 275 41H263C260.791 41 259 39.2091 259 37V25Z" fill="#757575"/>
<path d="M169 75C169 72.7909 170.791 71 173 71H185C187.209 71 189 72.7909 189 75V87C189 89.2091 187.209 91 185 91H173C170.791 91 169 89.2091 169 87V75Z" fill="#757575"/>
<path d="M214 75C214 72.7909 215.791 71 218 71H230C232.209 71 234 72.7909 234 75V87C234 89.2091 232.209 91 230 91H218C215.791 91 214 89.2091 214 87V75Z" fill="#757575"/>
<path d="M259 75C259 72.7909 260.791 71 263 71H275C277.209 71 279 72.7909 279 75V87C279 89.2091 277.209 91 275 91H263C260.791 91 259 89.2091 259 87V75Z" fill="#757575"/>
<path d="M806.828 121.61C805.266 120.048 805.266 117.515 806.828 115.953L815.314 107.468C816.876 105.906 819.408 105.906 820.971 107.468L829.456 115.953C831.018 117.515 831.018 120.048 829.456 121.61L820.971 130.095C819.408 131.658 816.876 131.658 815.314 130.095L806.828 121.61Z" fill="#757575"/>
<path d="M838.648 89.7904C837.086 88.2283 837.086 85.6956 838.648 84.1335L847.134 75.6482C848.696 74.0861 851.228 74.0861 852.79 75.6482L861.276 84.1335C862.838 85.6956 862.838 88.2283 861.276 89.7904L852.79 98.2757C851.228 99.8378 848.696 99.8377 847.134 98.2757L838.648 89.7904Z" fill="#757575"/>
<path d="M870.468 57.9705C868.906 56.4085 868.906 53.8758 870.468 52.3137L878.953 43.8284C880.515 42.2663 883.048 42.2663 884.61 43.8284L893.095 52.3137C894.658 53.8758 894.658 56.4085 893.095 57.9705L884.61 66.4558C883.048 68.0179 880.515 68.0179 878.953 66.4558L870.468 57.9705Z" fill="#757575"/>
<path d="M842.184 156.966C840.622 155.403 840.622 152.871 842.184 151.309L850.669 142.823C852.231 141.261 854.764 141.261 856.326 142.823L864.811 151.309C866.373 152.871 866.373 155.403 864.811 156.966L856.326 165.451C854.764 167.013 852.231 167.013 850.669 165.451L842.184 156.966Z" fill="#757575"/>
<path d="M874.004 125.146C872.441 123.584 872.441 121.051 874.004 119.489L882.489 111.004C884.051 109.441 886.584 109.441 888.146 111.004L896.631 119.489C898.193 121.051 898.193 123.584 896.631 125.146L888.146 133.631C886.584 135.193 884.051 135.193 882.489 133.631L874.004 125.146Z" fill="#757575"/>
<path d="M905.823 93.3259C904.261 91.7638 904.261 89.2311 905.823 87.669L914.309 79.1838C915.871 77.6217 918.403 77.6217 919.966 79.1838L928.451 87.669C930.013 89.2311 930.013 91.7638 928.451 93.3259L919.966 101.811C918.403 103.373 915.871 103.373 914.309 101.811L905.823 93.3259Z" fill="#757575"/>
<path d="M24 25C24 22.7909 25.7909 21 28 21H40C42.2091 21 44 22.7909 44 25V37C44 39.2091 42.2091 41 40 41H28C25.7909 41 24 39.2091 24 37V25Z" fill="#757575"/>
<path d="M69 25C69 22.7909 70.7909 21 73 21H85C87.2091 21 89 22.7909 89 25V37C89 39.2091 87.2091 41 85 41H73C70.7909 41 69 39.2091 69 37V25Z" fill="#757575"/>
<path d="M509 25C509 22.7909 510.791 21 513 21H525C527.209 21 529 22.7909 529 25V37C529 39.2091 527.209 41 525 41H513C510.791 41 509 39.2091 509 37V25Z" fill="#757575"/>
<path d="M554 25C554 22.7909 555.791 21 558 21H570C572.209 21 574 22.7909 574 25V37C574 39.2091 572.209 41 570 41H558C555.791 41 554 39.2091 554 37V25Z" fill="#757575"/>
<path d="M24 376C24 373.791 25.7909 372 28 372H40C42.2091 372 44 373.791 44 376V388C44 390.209 42.2091 392 40 392H28C25.7909 392 24 390.209 24 388V376Z" fill="#757575"/>
<path d="M69 376C69 373.791 70.7909 372 73 372H85C87.2091 372 89 373.791 89 376V388C89 390.209 87.2091 392 85 392H73C70.7909 392 69 390.209 69 388V376Z" fill="#757575"/>
<path d="M24 426C24 423.791 25.7909 422 28 422H40C42.2091 422 44 423.791 44 426V438C44 440.209 42.2091 442 40 442H28C25.7909 442 24 440.209 24 438V426Z" fill="#757575"/>
<path d="M69 426C69 423.791 70.7909 422 73 422H85C87.2091 422 89 423.791 89 426V438C89 440.209 87.2091 442 85 442H73C70.7909 442 69 440.209 69 438V426Z" fill="#757575"/>
<path d="M316 426C316 423.791 317.791 422 320 422H332C334.209 422 336 423.791 336 426V438C336 440.209 334.209 442 332 442H320C317.791 442 316 440.209 316 438V426Z" fill="#757575"/>
<path d="M361 426C361 423.791 362.791 422 365 422H377C379.209 422 381 423.791 381 426V438C381 440.209 379.209 442 377 442H365C362.791 442 361 440.209 361 438V426Z" fill="#757575"/>
<path d="M316 476C316 473.791 317.791 472 320 472H332C334.209 472 336 473.791 336 476V488C336 490.209 334.209 492 332 492H320C317.791 492 316 490.209 316 488V476Z" fill="#757575"/>
<path d="M361 476C361 473.791 362.791 472 365 472H377C379.209 472 381 473.791 381 476V488C381 490.209 379.209 492 377 492H365C362.791 492 361 490.209 361 488V476Z" fill="#757575"/>
<path d="M316 25C316 22.7909 317.791 21 320 21H332C334.209 21 336 22.7909 336 25V37C336 39.2091 334.209 41 332 41H320C317.791 41 316 39.2091 316 37V25Z" fill="#757575"/>
<path d="M361 25C361 22.7909 362.791 21 365 21H377C379.209 21 381 22.7909 381 25V37C381 39.2091 379.209 41 377 41H365C362.791 41 361 39.2091 361 37V25Z" fill="#757575"/>
<path d="M316 75C316 72.7909 317.791 71 320 71H332C334.209 71 336 72.7909 336 75V87C336 89.2091 334.209 91 332 91H320C317.791 91 316 89.2091 316 87V75Z" fill="#757575"/>
<path d="M361 75C361 72.7909 362.791 71 365 71H377C379.209 71 381 72.7909 381 75V87C381 89.2091 379.209 91 377 91H365C362.791 91 361 89.2091 361 87V75Z" fill="#757575"/>
<path d="M608 376C608 373.791 609.791 372 612 372H624C626.209 372 628 373.791 628 376V388C628 390.209 626.209 392 624 392H612C609.791 392 608 390.209 608 388V376Z" fill="#757575"/>
<path d="M653 376C653 373.791 654.791 372 657 372H669C671.209 372 673 373.791 673 376V388C673 390.209 671.209 392 669 392H657C654.791 392 653 390.209 653 388V376Z" fill="#757575"/>
<path d="M608 426C608 423.791 609.791 422 612 422H624C626.209 422 628 423.791 628 426V438C628 440.209 626.209 442 624 442H612C609.791 442 608 440.209 608 438V426Z" fill="#757575"/>
<path d="M653 426C653 423.791 654.791 422 657 422H669C671.209 422 673 423.791 673 426V438C673 440.209 671.209 442 669 442H657C654.791 442 653 440.209 653 438V426Z" fill="#757575"/>
<path d="M217 426C217 423.791 218.791 422 221 422H233C235.209 422 237 423.791 237 426V438C237 440.209 235.209 442 233 442H221C218.791 442 217 440.209 217 438V426Z" fill="#757575"/>
<path d="M262 426C262 423.791 263.791 422 266 422H278C280.209 422 282 423.791 282 426V438C282 440.209 280.209 442 278 442H266C263.791 442 262 440.209 262 438V426Z" fill="#757575"/>
<path d="M217 476C217 473.791 218.791 472 221 472H233C235.209 472 237 473.791 237 476V488C237 490.209 235.209 492 233 492H221C218.791 492 217 490.209 217 488V476Z" fill="#757575"/>
<path d="M262 476C262 473.791 263.791 472 266 472H278C280.209 472 282 473.791 282 476V488C282 490.209 280.209 492 278 492H266C263.791 492 262 490.209 262 488V476Z" fill="#757575"/>
<path d="M509 376C509 373.791 510.791 372 513 372H525C527.209 372 529 373.791 529 376V388C529 390.209 527.209 392 525 392H513C510.791 392 509 390.209 509 388V376Z" fill="#757575"/>
<path d="M554 376C554 373.791 555.791 372 558 372H570C572.209 372 574 373.791 574 376V388C574 390.209 572.209 392 570 392H558C555.791 392 554 390.209 554 388V376Z" fill="#757575"/>
<path d="M509 426C509 423.791 510.791 422 513 422H525C527.209 422 529 423.791 529 426V438C529 440.209 527.209 442 525 442H513C510.791 442 509 440.209 509 438V426Z" fill="#757575"/>
<path d="M554 426C554 423.791 555.791 422 558 422H570C572.209 422 574 423.791 574 426V438C574 440.209 572.209 442 570 442H558C555.791 442 554 440.209 554 438V426Z" fill="#757575"/>
<path d="M628 25C628 22.7909 629.791 21 632 21H644C646.209 21 648 22.7909 648 25V37C648 39.2091 646.209 41 644 41H632C629.791 41 628 39.2091 628 37V25Z" fill="#757575"/>
<path d="M673 25C673 22.7909 674.791 21 677 21H689C691.209 21 693 22.7909 693 25V37C693 39.2091 691.209 41 689 41H677C674.791 41 673 39.2091 673 37V25Z" fill="#757575"/>
<path d="M718 25C718 22.7909 719.791 21 722 21H734C736.209 21 738 22.7909 738 25V37C738 39.2091 736.209 41 734 41H722C719.791 41 718 39.2091 718 37V25Z" fill="#757575"/>
<defs>
<clipPath id="clip0">
<rect width="40" height="40" fill="white" transform="translate(316 297)"/>
</clipPath>
<clipPath id="clip1">
<rect width="40" height="40" fill="white" transform="translate(320 195)"/>
</clipPath>
<clipPath id="clip2">
<rect width="40" height="40" fill="white" transform="translate(239 195)"/>
</clipPath>
<clipPath id="clip3">
<rect width="40" height="40" fill="white" transform="translate(241 297)"/>
</clipPath>
<clipPath id="clip4">
<rect width="40" height="40" fill="white" transform="translate(754 324)"/>
</clipPath>
<clipPath id="clip5">
<rect width="40" height="40" fill="white" transform="translate(950 227)"/>
</clipPath>
</defs>
</svg>
