<svg width="763" height="531" viewBox="0 0 763 531" fill="none" xmlns="http://www.w3.org/2000/svg">
<path d="M4 152V4L629 4.5L749 122L602 268L630 295.5L444 480.5H224.5V527.5H4V383.5H77V266.5H105.5V201.5H82.5V152H4Z" fill="#E1F0DF"/>
<path d="M517.5 478H447.5L630 296L665.5 330.5L517.5 478Z" fill="#9CDAAD"/>
<path d="M81.5 152.5H3.5V383.5H77V266.5H105.5V201.5H81.5V152.5Z" fill="#258579"/>
<path d="M500.5 424L407 330.5L456 281L549.5 375L500.5 424Z" fill="#258579"/>
<path d="M664.5 331.5L603.5 268L695.5 175.5L759 238.5L664.5 331.5Z" fill="#258579"/>
<path d="M350 149H245.5V330.5H350V149Z" fill="#C8A590"/>
<path d="M695.5 175L759 238L665.5 331.114M695.5 175L749.5 121.5L628.5 3.5L297 3.23501M695.5 175L663.873 206.5M297 455V479M297 479H226V528H3V383.5M297 479H444.5M297 330.5V84M297 43V3.23501M297 3.23501L3 3V152M3 152V266.5M3 152H42.5M82 152V202H105.5V266.5H77.5H3M3 266.5V383.5M3 383.5H77.5V305M245 148.5V330.5H349.5M349.5 148.5V330.5M349.5 330.5H364.5M444.5 479H517L665.5 331.114M444.5 479L500.5 423.753M630.5 295.5L665.5 331.114M630.5 295.5L550 215.364M630.5 295.5L550 374.918M520 185.5L550 215.364M550 215.364L661.5 104.5L683 126M602.5 267.627L632.246 238M440.5 265.5L550 374.918M550 374.918L500.5 423.753M407.5 330.5L500.5 423.753M407.5 330.5H398M407.5 330.5L432.256 306.25" stroke="#11534B" stroke-width="5"/>
<path d="M502.828 124.61C501.266 123.048 501.266 120.515 502.828 118.953L511.314 110.468C512.876 108.906 515.408 108.906 516.971 110.468L525.456 118.953C527.018 120.515 527.018 123.048 525.456 124.61L516.971 133.095C515.408 134.658 512.876 134.658 511.314 133.095L502.828 124.61Z" fill="#757575"/>
<path d="M534.648 92.7903C533.086 91.2282 533.086 88.6956 534.648 87.1335L543.134 78.6482C544.696 77.0861 547.228 77.0861 548.79 78.6482L557.276 87.1335C558.838 88.6956 558.838 91.2282 557.276 92.7903L548.79 101.276C547.228 102.838 544.696 102.838 543.134 101.276L534.648 92.7903Z" fill="#757575"/>
<path d="M566.468 60.9705C564.906 59.4084 564.906 56.8758 566.468 55.3137L574.953 46.8284C576.515 45.2663 579.048 45.2663 580.61 46.8284L589.095 55.3137C590.658 56.8758 590.658 59.4084 589.095 60.9705L580.61 69.4558C579.048 71.0179 576.515 71.0179 574.953 69.4558L566.468 60.9705Z" fill="#757575"/>
<path d="M545.255 167.037C543.693 165.474 543.693 162.942 545.255 161.38L553.74 152.894C555.302 151.332 557.835 151.332 559.397 152.894L567.882 161.38C569.444 162.942 569.444 165.474 567.882 167.037L559.397 175.522C557.835 177.084 555.302 177.084 553.74 175.522L545.255 167.037Z" fill="#757575"/>
<path d="M577.075 135.217C575.513 133.655 575.513 131.122 577.075 129.56L585.56 121.075C587.122 119.513 589.655 119.513 591.217 121.075L599.702 129.56C601.264 131.122 601.264 133.655 599.702 135.217L591.217 143.702C589.655 145.264 587.122 145.264 585.56 143.702L577.075 135.217Z" fill="#757575"/>
<path d="M608.894 103.397C607.332 101.835 607.332 99.3022 608.894 97.7401L617.38 89.2548C618.942 87.6927 621.474 87.6927 623.037 89.2548L631.522 97.7401C633.084 99.3022 633.084 101.835 631.522 103.397L623.037 111.882C621.474 113.444 618.942 113.444 617.38 111.882L608.894 103.397Z" fill="#757575"/>
<path d="M29 28C29 25.7909 30.7909 24 33 24H45C47.2091 24 49 25.7909 49 28V40C49 42.2091 47.2091 44 45 44H33C30.7909 44 29 42.2091 29 40V28Z" fill="#757575"/>
<path d="M74 28C74 25.7909 75.7909 24 78 24H90C92.2091 24 94 25.7909 94 28V40C94 42.2091 92.2091 44 90 44H78C75.7909 44 74 42.2091 74 40V28Z" fill="#757575"/>
<path d="M119 28C119 25.7909 120.791 24 123 24H135C137.209 24 139 25.7909 139 28V40C139 42.2091 137.209 44 135 44H123C120.791 44 119 42.2091 119 40V28Z" fill="#757575"/>
<path d="M29 98C29 95.7909 30.7909 94 33 94H45C47.2091 94 49 95.7909 49 98V110C49 112.209 47.2091 114 45 114H33C30.7909 114 29 112.209 29 110V98Z" fill="#757575"/>
<path d="M74 98C74 95.7909 75.7909 94 78 94H90C92.2091 94 94 95.7909 94 98V110C94 112.209 92.2091 114 90 114H78C75.7909 114 74 112.209 74 110V98Z" fill="#757575"/>
<path d="M119 98C119 95.7909 120.791 94 123 94H135C137.209 94 139 95.7909 139 98V110C139 112.209 137.209 114 135 114H123C120.791 114 119 112.209 119 110V98Z" fill="#757575"/>
<path d="M496.828 290.79C495.266 289.228 495.266 286.696 496.828 285.133L505.314 276.648C506.876 275.086 509.408 275.086 510.971 276.648L519.456 285.133C521.018 286.696 521.018 289.228 519.456 290.79L510.971 299.276C509.408 300.838 506.876 300.838 505.314 299.276L496.828 290.79Z" fill="#757575"/>
<path d="M528.648 258.971C527.086 257.408 527.086 254.876 528.648 253.314L537.134 244.828C538.696 243.266 541.228 243.266 542.79 244.828L551.276 253.314C552.838 254.876 552.838 257.408 551.276 258.971L542.79 267.456C541.228 269.018 538.696 269.018 537.134 267.456L528.648 258.971Z" fill="#757575"/>
<path d="M532.184 326.146C530.622 324.584 530.622 322.051 532.184 320.489L540.669 312.004C542.231 310.441 544.764 310.441 546.326 312.004L554.811 320.489C556.373 322.051 556.373 324.584 554.811 326.146L546.326 334.631C544.764 336.193 542.231 336.193 540.669 334.631L532.184 326.146Z" fill="#757575"/>
<path d="M564.004 294.326C562.442 292.764 562.442 290.231 564.004 288.669L572.489 280.184C574.051 278.622 576.584 278.622 578.146 280.184L586.631 288.669C588.193 290.231 588.193 292.764 586.631 294.326L578.146 302.811C576.584 304.373 574.051 304.373 572.489 302.811L564.004 294.326Z" fill="#757575"/>
<path d="M199 28C199 25.7909 200.791 24 203 24H215C217.209 24 219 25.7909 219 28V40C219 42.2091 217.209 44 215 44H203C200.791 44 199 42.2091 199 40V28Z" fill="#757575"/>
<path d="M244 28C244 25.7909 245.791 24 248 24H260C262.209 24 264 25.7909 264 28V40C264 42.2091 262.209 44 260 44H248C245.791 44 244 42.2091 244 40V28Z" fill="#757575"/>
<path d="M19 428C19 425.791 20.7909 424 23 424H35C37.2091 424 39 425.791 39 428V440C39 442.209 37.2091 444 35 444H23C20.7909 444 19 442.209 19 440V428Z" fill="#757575"/>
<path d="M64 428C64 425.791 65.7909 424 68 424H80C82.2091 424 84 425.791 84 428V440C84 442.209 82.2091 444 80 444H68C65.7909 444 64 442.209 64 440V428Z" fill="#757575"/>
<path d="M19 478C19 475.791 20.7909 474 23 474H35C37.2091 474 39 475.791 39 478V490C39 492.209 37.2091 494 35 494H23C20.7909 494 19 492.209 19 490V478Z" fill="#757575"/>
<path d="M64 478C64 475.791 65.7909 474 68 474H80C82.2091 474 84 475.791 84 478V490C84 492.209 82.2091 494 80 494H68C65.7909 494 64 492.209 64 490V478Z" fill="#757575"/>
<path d="M340 28C340 25.7909 341.791 24 344 24H356C358.209 24 360 25.7909 360 28V40C360 42.2091 358.209 44 356 44H344C341.791 44 340 42.2091 340 40V28Z" fill="#757575"/>
<path d="M385 28C385 25.7909 386.791 24 389 24H401C403.209 24 405 25.7909 405 28V40C405 42.2091 403.209 44 401 44H389C386.791 44 385 42.2091 385 40V28Z" fill="#757575"/>
<path d="M430 28C430 25.7909 431.791 24 434 24H446C448.209 24 450 25.7909 450 28V40C450 42.2091 448.209 44 446 44H434C431.791 44 430 42.2091 430 40V28Z" fill="#757575"/>
<path d="M314 393C314 390.791 315.791 389 318 389H330C332.209 389 334 390.791 334 393V405C334 407.209 332.209 409 330 409H318C315.791 409 314 407.209 314 405V393Z" fill="#757575"/>
<path d="M359 393C359 390.791 360.791 389 363 389H375C377.209 389 379 390.791 379 393V405C379 407.209 377.209 409 375 409H363C360.791 409 359 407.209 359 405V393Z" fill="#757575"/>
<path d="M314 443C314 440.791 315.791 439 318 439H330C332.209 439 334 440.791 334 443V455C334 457.209 332.209 459 330 459H318C315.791 459 314 457.209 314 455V443Z" fill="#757575"/>
<path d="M359 443C359 440.791 360.791 439 363 439H375C377.209 439 379 440.791 379 443V455C379 457.209 377.209 459 375 459H363C360.791 459 359 457.209 359 455V443Z" fill="#757575"/>
<path d="M215 393C215 390.791 216.791 389 219 389H231C233.209 389 235 390.791 235 393V405C235 407.209 233.209 409 231 409H219C216.791 409 215 407.209 215 405V393Z" fill="#757575"/>
<path d="M260 393C260 390.791 261.791 389 264 389H276C278.209 389 280 390.791 280 393V405C280 407.209 278.209 409 276 409H264C261.791 409 260 407.209 260 405V393Z" fill="#757575"/>
<path d="M215 443C215 440.791 216.791 439 219 439H231C233.209 439 235 440.791 235 443V455C235 457.209 233.209 459 231 459H219C216.791 459 215 457.209 215 455V443Z" fill="#757575"/>
<path d="M260 443C260 440.791 261.791 439 264 439H276C278.209 439 280 440.791 280 443V455C280 457.209 278.209 459 276 459H264C261.791 459 260 457.209 260 455V443Z" fill="#757575"/>
<g clip-path="url(#clip0)">
<path d="M38.1666 230.667V218.167H35.6666V209C35.6666 207.167 37.1666 205.667 39 205.667H44C45.8333 205.667 47.3333 207.167 47.3333 209V218.167H44.8333V230.667H38.1666ZM59 230.667V220.667H64L59.7666 207.95C59.3 206.583 58.0333 205.667 56.6 205.667H56.4C54.9666 205.667 53.6833 206.583 53.2333 207.95L49 220.667H54V230.667H59ZM41.5 204C43.35 204 44.8333 202.517 44.8333 200.667C44.8333 198.817 43.35 197.333 41.5 197.333C39.65 197.333 38.1666 198.817 38.1666 200.667C38.1666 202.517 39.65 204 41.5 204ZM56.5 204C58.35 204 59.8333 202.517 59.8333 200.667C59.8333 198.817 58.35 197.333 56.5 197.333C54.65 197.333 53.1666 198.817 53.1666 200.667C53.1666 202.517 54.65 204 56.5 204Z" fill="#E1F0DF"/>
</g>
<g clip-path="url(#clip1)">
<path d="M28.1666 342.667V330.167H25.6666V321C25.6666 319.167 27.1666 317.667 29 317.667H34C35.8333 317.667 37.3333 319.167 37.3333 321V330.167H34.8333V342.667H28.1666ZM49 342.667V332.667H54L49.7666 319.95C49.3 318.583 48.0333 317.667 46.6 317.667H46.4C44.9666 317.667 43.6833 318.583 43.2333 319.95L39 332.667H44V342.667H49ZM31.5 316C33.35 316 34.8333 314.517 34.8333 312.667C34.8333 310.817 33.35 309.333 31.5 309.333C29.65 309.333 28.1666 310.817 28.1666 312.667C28.1666 314.517 29.65 316 31.5 316ZM46.5 316C48.35 316 49.8333 314.517 49.8333 312.667C49.8333 310.817 48.35 309.333 46.5 309.333C44.65 309.333 43.1666 310.817 43.1666 312.667C43.1666 314.517 44.65 316 46.5 316Z" fill="#E1F0DF"/>
</g>
<g clip-path="url(#clip2)">
<path d="M469.167 367.667V355.167H466.667V346C466.667 344.167 468.167 342.667 470 342.667H475C476.833 342.667 478.333 344.167 478.333 346V355.167H475.833V367.667H469.167ZM490 367.667V357.667H495L490.767 344.95C490.3 343.583 489.033 342.667 487.6 342.667H487.4C485.967 342.667 484.683 343.583 484.233 344.95L480 357.667H485V367.667H490ZM472.5 341C474.35 341 475.833 339.517 475.833 337.667C475.833 335.817 474.35 334.333 472.5 334.333C470.65 334.333 469.167 335.817 469.167 337.667C469.167 339.517 470.65 341 472.5 341ZM487.5 341C489.35 341 490.833 339.517 490.833 337.667C490.833 335.817 489.35 334.333 487.5 334.333C485.65 334.333 484.167 335.817 484.167 337.667C484.167 339.517 485.65 341 487.5 341Z" fill="#E1F0DF"/>
</g>
<g clip-path="url(#clip3)">
<path d="M669.167 270.667V258.167H666.667V249C666.667 247.167 668.167 245.667 670 245.667H675C676.833 245.667 678.333 247.167 678.333 249V258.167H675.833V270.667H669.167ZM690 270.667V260.667H695L690.767 247.95C690.3 246.583 689.033 245.667 687.6 245.667H687.4C685.967 245.667 684.683 246.583 684.233 247.95L680 260.667H685V270.667H690ZM672.5 244C674.35 244 675.833 242.517 675.833 240.667C675.833 238.817 674.35 237.333 672.5 237.333C670.65 237.333 669.167 238.817 669.167 240.667C669.167 242.517 670.65 244 672.5 244ZM687.5 244C689.35 244 690.833 242.517 690.833 240.667C690.833 238.817 689.35 237.333 687.5 237.333C685.65 237.333 684.167 238.817 684.167 240.667C684.167 242.517 685.65 244 687.5 244Z" fill="#E1F0DF"/>
</g>
<path d="M281.667 236.333V259.667H258.333V236.333H281.667ZM281.667 233H258.333C256.5 233 255 234.5 255 236.333V259.667C255 261.5 256.5 263 258.333 263H281.667C283.5 263 285 261.5 285 259.667V236.333C285 234.5 283.5 233 281.667 233ZM280 238H272.633V243.55H268.333V249.1H264.033V254.667H260V258H267.367V252.45H271.667V246.9H275.967V241.333H280V238Z" fill="#E1F0DF"/>
<path d="M334.667 236.333V259.667H311.333V236.333H334.667ZM334.667 233H311.333C309.5 233 308 234.5 308 236.333V259.667C308 261.5 309.5 263 311.333 263H334.667C336.5 263 338 261.5 338 259.667V236.333C338 234.5 336.5 233 334.667 233ZM333 238H325.633V243.55H321.333V249.1H317.033V254.667H313V258H320.367V252.45H324.667V246.9H328.967V241.333H333V238Z" fill="#E1F0DF"/>
<defs>
<clipPath id="clip0">
<rect width="40" height="40" fill="white" transform="translate(29 194)"/>
</clipPath>
<clipPath id="clip1">
<rect width="40" height="40" fill="white" transform="translate(19 306)"/>
</clipPath>
<clipPath id="clip2">
<rect width="40" height="40" fill="white" transform="translate(460 331)"/>
</clipPath>
<clipPath id="clip3">
<rect width="40" height="40" fill="white" transform="translate(660 234)"/>
</clipPath>
</defs>
</svg>
