<svg width="763" height="565" viewBox="0 0 763 565" fill="none" xmlns="http://www.w3.org/2000/svg">
<path d="M4 242V3.5H591V145.5L538.5 199.5L612 273.5L504.5 380L468.5 344H427.5V450H195.5V382.5H64.5V328H108V242H4Z" fill="#E1F0DF"/>
<path d="M64 305H3.5V561.5H195V382.5H64V305Z" fill="#9CDAAD"/>
<path d="M504 475V379.5L612.5 273.5L537.5 198.5L592 144.5V4H634.5L750 118.5L698 172.5L758 235.5L518 475H504Z" fill="#9CDAAD"/>
<path d="M108 242H3.5V305.5H64.5V329H108V242Z" fill="#258579"/>
<path d="M468.5 345H429V475H504V380L468.5 345Z" fill="#258579"/>
<path d="M344 167H248V354H344V167Z" fill="#C8A590"/>
<path d="M196 450V562H3V475M196 450V382H161.5M196 450H210.5M429 450V475H504M429 450V344.5V309.5L458.5 281L471.5 294M429 450H394.5M297 362.5V3M297 3H3V241M297 3H591.5M568 168L591.5 144.616M684 52.5727L751 119L698 172L759 235L519 475H504M684 52.5727L634 3H591.5M684 52.5727L591.5 144.616M504 380V475M504 380L468.5 344.5M504 380L613 273L538 199M108 382V475H3M3 475V304M108 328.5V241H3M3 241V304M64.5 386V328.5V304H3M591.5 3V144.616M344.5 355.5V166.5H247.5V355.5M297 416V475M344.5 450H262" stroke="#11534B" stroke-width="5"/>
<path d="M30 42C30 39.7909 31.7909 38 34 38H46C48.2091 38 50 39.7909 50 42V54C50 56.2091 48.2091 58 46 58H34C31.7909 58 30 56.2091 30 54V42Z" fill="#757575"/>
<path d="M75 42C75 39.7909 76.7909 38 79 38H91C93.2091 38 95 39.7909 95 42V54C95 56.2091 93.2091 58 91 58H79C76.7909 58 75 56.2091 75 54V42Z" fill="#757575"/>
<path d="M120 42C120 39.7909 121.791 38 124 38H136C138.209 38 140 39.7909 140 42V54C140 56.2091 138.209 58 136 58H124C121.791 58 120 56.2091 120 54V42Z" fill="#757575"/>
<path d="M30 112C30 109.791 31.7909 108 34 108H46C48.2091 108 50 109.791 50 112V124C50 126.209 48.2091 128 46 128H34C31.7909 128 30 126.209 30 124V112Z" fill="#757575"/>
<path d="M75 112C75 109.791 76.7909 108 79 108H91C93.2091 108 95 109.791 95 112V124C95 126.209 93.2091 128 91 128H79C76.7909 128 75 126.209 75 124V112Z" fill="#757575"/>
<path d="M120 112C120 109.791 121.791 108 124 108H136C138.209 108 140 109.791 140 112V124C140 126.209 138.209 128 136 128H124C121.791 128 120 126.209 120 124V112Z" fill="#757575"/>
<path d="M210 42C210 39.7909 211.791 38 214 38H226C228.209 38 230 39.7909 230 42V54C230 56.2091 228.209 58 226 58H214C211.791 58 210 56.2091 210 54V42Z" fill="#757575"/>
<path d="M255 42C255 39.7909 256.791 38 259 38H271C273.209 38 275 39.7909 275 42V54C275 56.2091 273.209 58 271 58H259C256.791 58 255 56.2091 255 54V42Z" fill="#757575"/>
<path d="M210 112C210 109.791 211.791 108 214 108H226C228.209 108 230 109.791 230 112V124C230 126.209 228.209 128 226 128H214C211.791 128 210 126.209 210 124V112Z" fill="#757575"/>
<path d="M255 112C255 109.791 256.791 108 259 108H271C273.209 108 275 109.791 275 112V124C275 126.209 273.209 128 271 128H259C256.791 128 255 126.209 255 124V112Z" fill="#757575"/>
<path d="M408 42C408 39.7909 409.791 38 412 38H424C426.209 38 428 39.7909 428 42V54C428 56.2091 426.209 58 424 58H412C409.791 58 408 56.2091 408 54V42Z" fill="#757575"/>
<path d="M453 42C453 39.7909 454.791 38 457 38H469C471.209 38 473 39.7909 473 42V54C473 56.2091 471.209 58 469 58H457C454.791 58 453 56.2091 453 54V42Z" fill="#757575"/>
<path d="M498 42C498 39.7909 499.791 38 502 38H514C516.209 38 518 39.7909 518 42V54C518 56.2091 516.209 58 514 58H502C499.791 58 498 56.2091 498 54V42Z" fill="#757575"/>
<path d="M543 42C543 39.7909 544.791 38 547 38H559C561.209 38 563 39.7909 563 42V54C563 56.2091 561.209 58 559 58H547C544.791 58 543 56.2091 543 54V42Z" fill="#757575"/>
<path d="M408 112C408 109.791 409.791 108 412 108H424C426.209 108 428 109.791 428 112V124C428 126.209 426.209 128 424 128H412C409.791 128 408 126.209 408 124V112Z" fill="#757575"/>
<path d="M453 112C453 109.791 454.791 108 457 108H469C471.209 108 473 109.791 473 112V124C473 126.209 471.209 128 469 128H457C454.791 128 453 126.209 453 124V112Z" fill="#757575"/>
<path d="M498 112C498 109.791 499.791 108 502 108H514C516.209 108 518 109.791 518 112V124C518 126.209 516.209 128 514 128H502C499.791 128 498 126.209 498 124V112Z" fill="#757575"/>
<path d="M543 112C543 109.791 544.791 108 547 108H559C561.209 108 563 109.791 563 112V124C563 126.209 561.209 128 559 128H547C544.791 128 543 126.209 543 124V112Z" fill="#757575"/>
<path d="M321 27C321 24.7909 322.791 23 325 23H337C339.209 23 341 24.7909 341 27V39C341 41.2091 339.209 43 337 43H325C322.791 43 321 41.2091 321 39V27Z" fill="#757575"/>
<path d="M321 77C321 74.7909 322.791 73 325 73H337C339.209 73 341 74.7909 341 77V89C341 91.2091 339.209 93 337 93H325C322.791 93 321 91.2091 321 89V77Z" fill="#757575"/>
<path d="M321 127C321 124.791 322.791 123 325 123H337C339.209 123 341 124.791 341 127V139C341 141.209 339.209 143 337 143H325C322.791 143 321 141.209 321 139V127Z" fill="#757575"/>
<path d="M139 307C136.791 307 135 305.209 135 303V291C135 288.791 136.791 287 139 287H151C153.209 287 155 288.791 155 291V303C155 305.209 153.209 307 151 307H139Z" fill="#757575"/>
<path d="M139 262C136.791 262 135 260.209 135 258V246C135 243.791 136.791 242 139 242H151C153.209 242 155 243.791 155 246V258C155 260.209 153.209 262 151 262H139Z" fill="#757575"/>
<path d="M139 217C136.791 217 135 215.209 135 213V201C135 198.791 136.791 197 139 197H151C153.209 197 155 198.791 155 201V213C155 215.209 153.209 217 151 217H139Z" fill="#757575"/>
<path d="M199 307C196.791 307 195 305.209 195 303V291C195 288.791 196.791 287 199 287H211C213.209 287 215 288.791 215 291V303C215 305.209 213.209 307 211 307H199Z" fill="#757575"/>
<path d="M199 262C196.791 262 195 260.209 195 258V246C195 243.791 196.791 242 199 242H211C213.209 242 215 243.791 215 246V258C215 260.209 213.209 262 211 262H199Z" fill="#757575"/>
<path d="M199 217C196.791 217 195 215.209 195 213V201C195 198.791 196.791 197 199 197H211C213.209 197 215 198.791 215 201V213C215 215.209 213.209 217 211 217H199Z" fill="#757575"/>
<path d="M519.828 315.79C518.266 314.228 518.266 311.696 519.828 310.133L528.314 301.648C529.876 300.086 532.408 300.086 533.971 301.648L542.456 310.133C544.018 311.696 544.018 314.228 542.456 315.79L533.971 324.276C532.408 325.838 529.876 325.838 528.314 324.276L519.828 315.79Z" fill="#757575"/>
<path d="M551.648 283.971C550.086 282.408 550.086 279.876 551.648 278.314L560.134 269.828C561.696 268.266 564.228 268.266 565.79 269.828L574.276 278.314C575.838 279.876 575.838 282.408 574.276 283.971L565.79 292.456C564.228 294.018 561.696 294.018 560.134 292.456L551.648 283.971Z" fill="#757575"/>
<g clip-path="url(#clip0)">
<path d="M455.167 433.667V421.167H452.667V412C452.667 410.167 454.167 408.667 456 408.667H461C462.833 408.667 464.333 410.167 464.333 412V421.167H461.833V433.667H455.167ZM476 433.667V423.667H481L476.767 410.95C476.3 409.583 475.033 408.667 473.6 408.667H473.4C471.967 408.667 470.683 409.583 470.233 410.95L466 423.667H471V433.667H476ZM458.5 407C460.35 407 461.833 405.517 461.833 403.667C461.833 401.817 460.35 400.333 458.5 400.333C456.65 400.333 455.167 401.817 455.167 403.667C455.167 405.517 456.65 407 458.5 407ZM473.5 407C475.35 407 476.833 405.517 476.833 403.667C476.833 401.817 475.35 400.333 473.5 400.333C471.65 400.333 470.167 401.817 470.167 403.667C470.167 405.517 471.65 407 473.5 407Z" fill="#E1F0DF"/>
</g>
<g clip-path="url(#clip1)">
<path d="M47.1666 289.667V277.167H44.6666V268C44.6666 266.167 46.1666 264.667 48 264.667H53C54.8333 264.667 56.3333 266.167 56.3333 268V277.167H53.8333V289.667H47.1666ZM68 289.667V279.667H73L68.7666 266.95C68.3 265.583 67.0333 264.667 65.6 264.667H65.4C63.9666 264.667 62.6833 265.583 62.2333 266.95L58 279.667H63V289.667H68ZM50.5 263C52.35 263 53.8333 261.517 53.8333 259.667C53.8333 257.817 52.35 256.333 50.5 256.333C48.65 256.333 47.1666 257.817 47.1666 259.667C47.1666 261.517 48.65 263 50.5 263ZM65.5 263C67.35 263 68.8333 261.517 68.8333 259.667C68.8333 257.817 67.35 256.333 65.5 256.333C63.65 256.333 62.1666 257.817 62.1666 259.667C62.1666 261.517 63.65 263 65.5 263Z" fill="#E1F0DF"/>
</g>
<path d="M284.667 253.333V276.667H261.333V253.333H284.667ZM284.667 250H261.333C259.5 250 258 251.5 258 253.333V276.667C258 278.5 259.5 280 261.333 280H284.667C286.5 280 288 278.5 288 276.667V253.333C288 251.5 286.5 250 284.667 250ZM283 255H275.633V260.55H271.333V266.1H267.033V271.667H263V275H270.367V269.45H274.667V263.9H278.967V258.333H283V255Z" fill="#E1F0DF"/>
<path d="M331.667 253.333V276.667H308.333V253.333H331.667ZM331.667 250H308.333C306.5 250 305 251.5 305 253.333V276.667C305 278.5 306.5 280 308.333 280H331.667C333.5 280 335 278.5 335 276.667V253.333C335 251.5 333.5 250 331.667 250ZM330 255H322.633V260.55H318.333V266.1H314.033V271.667H310V275H317.367V269.45H321.667V263.9H325.967V258.333H330V255Z" fill="#E1F0DF"/>
<defs>
<clipPath id="clip0">
<rect width="40" height="40" fill="white" transform="translate(446 397)"/>
</clipPath>
<clipPath id="clip1">
<rect width="40" height="40" fill="white" transform="translate(38 253)"/>
</clipPath>
</defs>
</svg>
